<svg id="svg" version="1.1" xmlns="http://www.w3.org/2000/svg" xmlns:xlink="http://www.w3.org/1999/xlink" width="400" height="400" viewBox="0, 0, 400,400"><g id="svgg"><path id="path0" d="M175.167 18.960 C 175.075 19.048,174.100 19.228,173.000 19.360 C 165.625 20.242,159.659 22.551,139.800 32.206 C 127.943 37.972,119.732 41.051,111.600 42.782 C 109.290 43.273,106.680 44.000,105.800 44.396 C 104.920 44.793,103.480 45.414,102.600 45.777 C 95.956 48.516,84.837 57.338,77.362 65.800 C 72.109 71.747,68.858 76.525,62.937 87.000 C 57.524 96.577,51.423 110.959,48.768 120.400 C 48.181 122.490,47.504 124.157,47.264 124.105 C 47.025 124.052,46.926 124.262,47.044 124.570 C 47.370 125.420,45.751 132.543,44.310 136.598 C 43.025 140.214,41.737 142.351,36.838 149.000 C 29.749 158.622,26.145 165.477,24.854 171.800 C 24.494 173.560,24.065 175.060,23.901 175.133 C 23.736 175.206,23.711 175.704,23.845 176.238 C 23.989 176.809,23.865 177.481,23.545 177.867 C 22.832 178.725,22.755 194.562,23.457 196.038 C 23.708 196.567,24.306 198.971,24.786 201.380 C 25.266 203.789,25.924 206.489,26.248 207.380 C 26.573 208.271,27.362 210.620,28.003 212.600 C 28.643 214.580,30.070 218.810,31.174 222.000 C 32.278 225.190,33.638 229.510,34.198 231.600 C 34.758 233.690,35.386 235.702,35.594 236.072 C 35.802 236.442,36.433 238.602,36.996 240.872 C 37.559 243.142,38.277 245.630,38.591 246.400 C 38.905 247.170,39.627 249.600,40.196 251.800 C 40.765 254.000,41.404 256.160,41.617 256.600 C 41.830 257.040,42.546 259.380,43.210 261.800 C 43.874 264.220,44.592 266.560,44.807 267.000 C 45.021 267.440,45.724 269.510,46.369 271.600 C 47.693 275.894,50.128 282.797,50.954 284.600 C 51.257 285.260,51.816 286.790,52.197 288.000 C 52.579 289.210,53.108 290.560,53.375 291.000 C 53.641 291.440,54.357 293.060,54.966 294.600 C 63.912 317.208,85.813 340.315,105.800 348.232 C 107.340 348.842,108.960 349.555,109.400 349.816 C 110.506 350.473,121.870 354.077,128.400 355.843 C 136.381 358.001,144.557 361.927,157.000 369.578 C 158.540 370.525,160.340 371.612,161.000 371.993 C 161.660 372.375,164.000 373.825,166.200 375.217 C 182.149 385.303,185.729 386.371,203.200 386.247 C 215.483 386.161,220.431 384.653,231.624 377.585 C 233.947 376.118,236.017 374.846,236.224 374.759 C 236.561 374.617,241.168 371.622,247.152 367.657 C 248.335 366.873,249.685 366.027,250.152 365.776 C 250.618 365.525,252.530 364.373,254.400 363.215 C 259.690 359.940,264.379 357.725,271.367 355.201 C 277.593 352.951,283.432 350.521,284.487 349.740 C 284.769 349.531,285.900 348.923,287.000 348.389 C 306.788 338.784,324.928 313.909,335.851 281.400 C 336.590 279.200,337.368 277.040,337.581 276.600 C 337.793 276.160,338.421 274.450,338.977 272.800 C 339.533 271.150,340.805 267.550,341.804 264.800 C 342.803 262.050,344.230 258.054,344.974 255.921 C 345.718 253.788,346.469 251.813,346.642 251.532 C 346.815 251.252,347.526 249.397,348.221 247.411 C 348.916 245.425,350.119 242.090,350.893 240.000 C 353.598 232.699,355.685 226.971,357.014 223.200 C 358.640 218.588,360.539 213.432,361.803 210.200 C 370.982 186.722,367.903 166.887,351.774 145.600 C 351.024 144.610,349.870 142.900,349.209 141.800 C 348.548 140.700,348.006 140.038,348.004 140.330 C 348.002 140.621,348.774 142.061,349.719 143.530 C 350.664 144.998,352.058 147.460,352.817 149.000 C 353.575 150.540,354.422 151.944,354.698 152.120 C 354.974 152.296,355.200 152.641,355.200 152.887 C 355.200 153.132,355.091 153.224,354.957 153.091 C 354.577 152.711,353.678 153.737,353.895 154.303 C 354.002 154.582,353.891 155.049,353.648 155.342 C 353.406 155.634,353.289 155.956,353.389 156.056 C 353.490 156.156,352.910 156.283,352.101 156.337 C 350.349 156.455,350.219 156.552,350.572 157.472 C 350.803 158.074,350.898 158.091,351.215 157.589 C 351.420 157.265,351.591 157.164,351.594 157.364 C 351.597 157.565,351.073 158.199,350.430 158.774 C 349.580 159.532,349.224 160.255,349.130 161.409 C 349.001 162.987,348.985 163.001,347.200 163.128 C 346.169 163.201,345.264 163.500,345.080 163.828 C 344.904 164.143,344.522 164.400,344.230 164.400 C 343.654 164.400,343.200 166.103,343.200 168.266 C 343.200 169.018,342.834 170.128,342.386 170.733 C 341.736 171.612,341.569 172.461,341.556 174.941 C 341.544 177.250,341.393 178.104,340.970 178.267 C 340.656 178.387,340.400 178.745,340.400 179.063 C 340.400 179.495,340.224 179.541,339.700 179.248 C 339.156 178.943,338.887 179.050,338.492 179.728 C 338.054 180.480,337.999 180.496,338.092 179.841 C 338.232 178.857,337.325 178.532,337.080 179.478 C 336.908 180.141,336.889 180.143,336.846 179.500 C 336.821 179.115,336.647 178.800,336.461 178.800 C 336.274 178.800,335.784 178.035,335.372 177.100 C 334.959 176.165,334.527 175.310,334.411 175.200 C 334.295 175.090,333.983 174.640,333.717 174.200 C 333.452 173.760,332.748 172.599,332.153 171.619 C 330.147 168.316,322.400 161.577,322.400 163.136 C 322.400 163.310,322.985 163.731,323.700 164.073 C 326.591 165.453,330.556 169.507,332.433 173.000 C 332.906 173.880,333.543 174.885,333.848 175.233 C 336.629 178.406,338.982 188.315,338.682 195.583 C 338.120 209.172,334.767 215.203,315.988 236.400 C 301.262 253.022,298.111 258.041,291.382 275.600 C 281.510 301.362,267.789 318.425,245.400 332.782 C 242.540 334.616,238.850 337.140,237.200 338.391 C 223.711 348.615,209.568 352.234,198.645 348.257 C 193.663 346.443,189.589 343.263,180.600 334.172 C 170.870 324.332,168.853 322.637,163.930 320.165 C 154.895 315.627,147.100 314.096,140.297 315.524 C 135.173 316.599,132.681 316.613,128.800 315.590 C 122.404 313.904,119.600 312.070,113.794 305.772 C 98.544 289.231,92.384 284.802,80.200 281.616 C 66.437 278.018,63.256 272.760,64.422 255.533 C 65.583 238.361,64.215 229.963,57.731 214.461 C 49.497 194.773,51.723 182.594,65.599 171.412 C 83.139 157.279,94.159 133.888,91.612 116.194 C 89.707 102.963,92.595 93.740,101.265 85.365 C 110.371 76.568,119.826 73.979,131.200 77.166 C 132.850 77.629,136.270 78.570,138.800 79.259 C 151.838 82.805,162.395 79.262,169.027 69.114 C 170.002 67.621,171.630 65.130,172.645 63.578 C 173.660 62.027,174.394 60.661,174.277 60.544 C 174.161 60.427,173.844 60.752,173.574 61.266 C 173.304 61.780,172.389 63.035,171.542 64.056 C 170.694 65.076,170.000 66.102,170.000 66.336 C 170.000 66.569,169.761 66.904,169.469 67.080 C 169.177 67.256,168.598 67.985,168.182 68.700 C 167.767 69.415,167.286 70.000,167.114 70.000 C 166.941 70.000,166.800 70.198,166.800 70.440 C 166.800 70.681,166.260 71.383,165.600 72.000 C 164.940 72.617,164.400 73.298,164.400 73.514 C 164.400 73.731,163.958 74.198,163.418 74.551 C 162.878 74.905,162.113 75.540,161.718 75.962 C 161.323 76.384,160.280 76.998,159.400 77.326 C 158.520 77.654,157.440 78.062,157.000 78.233 C 156.068 78.595,154.894 78.823,153.891 78.838 C 153.476 78.844,153.296 79.032,153.457 79.292 C 153.630 79.572,153.504 79.649,153.114 79.499 C 152.775 79.369,152.296 79.464,152.049 79.711 C 151.717 80.043,151.600 80.035,151.600 79.680 C 151.600 79.416,151.330 79.200,151.000 79.200 C 150.670 79.200,150.400 79.380,150.400 79.600 C 150.400 79.820,149.950 80.000,149.400 80.000 C 148.850 80.000,148.400 79.817,148.400 79.592 C 148.400 79.356,147.937 79.286,147.300 79.425 C 146.522 79.594,146.363 79.550,146.755 79.275 C 147.398 78.823,145.237 78.883,144.503 79.337 C 144.267 79.482,143.652 79.433,143.137 79.226 C 142.622 79.020,142.425 78.839,142.700 78.825 C 143.304 78.795,143.379 77.200,142.776 77.200 C 142.543 77.200,142.471 77.008,142.616 76.773 C 142.761 76.539,142.547 76.103,142.141 75.806 C 141.149 75.081,142.904 74.586,145.175 74.950 C 147.311 75.291,149.015 74.467,151.400 71.942 C 154.624 68.527,154.881 68.149,155.172 66.400 C 155.190 66.290,155.534 66.698,155.935 67.306 L 156.664 68.413 157.421 67.577 C 157.968 66.972,158.017 66.777,157.598 66.870 C 156.761 67.058,156.615 65.342,157.370 64.190 C 157.754 63.603,158.236 63.316,158.601 63.456 C 159.391 63.759,159.390 62.656,158.600 62.000 C 157.683 61.239,157.885 60.685,159.002 60.898 C 160.167 61.121,161.836 59.906,161.380 59.168 C 160.725 58.108,160.934 53.600,161.638 53.600 C 162.612 53.600,163.197 52.697,162.949 51.579 C 162.779 50.818,162.824 50.733,163.149 51.197 C 163.502 51.700,163.647 51.708,164.083 51.247 C 164.493 50.814,164.496 50.662,164.100 50.517 C 163.540 50.311,163.408 49.200,163.945 49.200 C 164.134 49.200,164.208 48.776,164.109 48.257 C 163.919 47.267,165.730 45.386,166.447 45.829 C 166.641 45.949,166.800 45.872,166.800 45.657 C 166.800 45.442,166.644 45.207,166.453 45.133 C 165.525 44.777,165.614 43.328,166.595 42.803 C 167.815 42.150,167.895 41.600,166.771 41.600 C 166.035 41.600,166.010 41.533,166.543 41.000 C 166.873 40.670,167.423 40.400,167.766 40.400 C 168.411 40.400,169.749 37.764,169.394 37.191 C 169.066 36.659,169.937 34.800,170.515 34.800 C 172.012 34.800,173.920 31.292,172.800 30.600 C 171.997 30.104,172.814 24.000,173.683 24.000 C 173.857 24.000,174.000 23.733,174.000 23.408 C 174.000 23.082,174.483 22.694,175.073 22.546 C 176.781 22.117,178.137 21.315,177.528 21.093 C 177.100 20.936,177.096 20.798,177.510 20.360 C 177.905 19.941,178.186 19.924,178.759 20.281 C 179.275 20.604,179.624 20.616,179.917 20.323 C 180.149 20.091,182.827 19.740,185.869 19.542 C 193.929 19.018,193.603 18.898,183.967 18.846 C 179.218 18.821,175.258 18.872,175.167 18.960 M168.188 37.980 C 168.317 38.189,168.057 38.555,167.611 38.794 C 166.980 39.132,166.800 39.107,166.800 38.681 C 166.800 37.695,167.723 37.229,168.188 37.980 M175.543 58.900 C 174.896 59.822,174.836 60.035,175.337 59.633 C 176.050 59.060,176.987 57.600,176.641 57.600 C 176.539 57.600,176.044 58.185,175.543 58.900 M160.600 118.000 L 159.800 118.344 160.600 118.344 C 161.040 118.344,161.760 118.189,162.200 118.000 L 163.000 117.656 162.200 117.656 C 161.760 117.656,161.040 117.811,160.600 118.000 M154.107 120.403 C 152.956 120.812,151.516 121.422,150.907 121.759 C 150.298 122.095,148.450 123.000,146.800 123.770 C 132.912 130.250,119.078 143.008,107.730 159.800 C 84.683 193.907,98.755 245.700,137.662 269.962 C 166.124 287.712,195.884 290.153,224.108 277.053 C 226.190 276.086,228.029 275.076,228.195 274.808 C 228.425 274.436,228.307 274.421,227.700 274.746 C 227.262 274.981,226.205 275.340,225.352 275.544 C 224.498 275.748,220.845 276.744,217.233 277.756 C 178.583 288.584,144.134 278.567,119.023 249.200 C 97.191 223.668,93.925 182.711,111.751 158.000 C 112.782 156.570,114.813 153.600,116.264 151.400 C 120.511 144.961,127.777 137.098,133.437 132.817 C 135.301 131.407,143.751 125.920,144.660 125.529 C 145.287 125.260,146.250 124.741,146.800 124.376 C 147.350 124.011,149.420 123.001,151.400 122.132 C 156.867 119.731,157.029 119.654,156.600 119.656 C 156.380 119.657,155.258 119.993,154.107 120.403 M228.186 123.977 C 228.303 124.166,228.945 124.512,229.613 124.745 C 230.281 124.977,230.732 125.013,230.614 124.823 C 230.497 124.634,229.855 124.288,229.187 124.055 C 228.519 123.823,228.068 123.787,228.186 123.977 M232.000 125.787 C 232.000 125.897,232.855 126.440,233.900 126.994 C 234.945 127.548,236.250 128.293,236.800 128.649 L 237.800 129.298 236.800 128.435 C 235.730 127.511,232.000 125.453,232.000 125.787 M238.000 129.350 C 238.000 129.444,238.641 129.899,239.424 130.361 C 240.207 130.823,240.736 131.020,240.599 130.798 C 240.331 130.364,238.000 129.066,238.000 129.350 M241.600 131.725 C 241.600 131.824,242.261 132.409,243.068 133.025 C 243.876 133.641,244.411 133.941,244.256 133.691 C 243.940 133.179,241.600 131.447,241.600 131.725 M245.556 134.916 C 245.862 135.302,247.392 136.728,248.956 138.086 C 251.518 140.310,251.622 140.365,250.000 138.644 C 248.137 136.667,244.574 133.678,245.556 134.916 M317.200 160.733 C 317.530 160.936,318.250 161.224,318.800 161.371 C 319.495 161.557,319.617 161.525,319.200 161.267 C 318.870 161.064,318.150 160.776,317.600 160.629 C 316.905 160.443,316.783 160.475,317.200 160.733 M345.000 166.400 C 345.136 166.620,344.877 166.800,344.424 166.800 C 343.971 166.800,343.600 166.620,343.600 166.400 C 343.600 166.180,343.859 166.000,344.176 166.000 C 344.493 166.000,344.864 166.180,345.000 166.400 " stroke="none" fill="#28231d" fill-rule="evenodd"></path><path id="path1" d="M261.800 62.467 C 254.780 63.793,243.872 72.191,242.603 77.246 C 242.042 79.481,251.824 83.597,257.715 83.604 C 264.659 83.612,268.378 87.005,271.667 96.329 C 273.315 101.000,274.843 103.945,277.723 108.000 C 279.052 109.870,280.843 112.705,281.704 114.300 C 283.551 117.721,283.412 117.690,286.606 115.411 C 303.012 103.704,300.387 79.297,281.400 66.999 C 274.765 62.702,268.376 61.225,261.800 62.467 M177.200 116.023 C 156.907 118.234,137.710 127.631,124.424 141.857 C 119.904 146.697,115.079 153.521,114.623 155.718 C 114.523 156.203,114.165 157.770,113.830 159.200 C 112.339 165.547,112.209 168.557,112.002 201.334 C 111.935 211.841,114.005 215.938,128.571 234.138 C 140.259 248.741,161.037 264.499,172.800 267.680 C 177.569 268.970,188.711 268.965,195.681 267.670 C 201.775 266.538,202.213 266.556,207.400 268.160 C 213.351 270.000,217.477 271.116,219.400 271.405 C 222.272 271.837,222.836 272.018,222.586 272.422 C 222.451 272.642,222.128 272.795,221.870 272.763 C 220.234 272.561,219.961 272.768,220.592 273.732 C 220.928 274.244,221.103 274.763,220.982 274.885 C 220.426 275.441,224.848 274.598,226.992 273.739 C 230.213 272.449,233.600 270.162,233.600 269.277 C 233.600 269.068,234.162 268.664,234.848 268.380 C 242.197 265.336,253.007 255.420,259.681 245.600 C 271.658 227.979,276.292 204.799,271.985 184.053 C 264.089 146.017,240.890 123.848,201.400 116.600 C 197.115 115.814,182.354 115.462,177.200 116.023 M210.274 129.774 C 233.594 134.686,255.019 155.298,255.896 173.665 L 256.100 177.931 254.285 180.265 C 239.285 199.566,208.557 201.144,193.202 183.403 C 172.347 159.306,183.540 124.144,210.274 129.774 " stroke="none" fill="#eb8506" fill-rule="evenodd"></path><path id="path2" d="M185.600 18.800 C 189.450 18.926,191.880 19.078,191.000 19.137 C 182.649 19.705,180.282 19.958,179.920 20.320 C 179.623 20.617,179.277 20.605,178.759 20.281 C 178.186 19.924,177.905 19.941,177.510 20.360 C 177.096 20.798,177.100 20.936,177.528 21.093 C 178.137 21.315,176.781 22.117,175.073 22.546 C 174.483 22.694,174.000 23.082,174.000 23.408 C 174.000 23.733,173.857 24.000,173.683 24.000 C 172.814 24.000,171.997 30.104,172.800 30.600 C 173.920 31.292,172.012 34.800,170.515 34.800 C 169.937 34.800,169.066 36.659,169.394 37.191 C 169.749 37.764,168.411 40.400,167.766 40.400 C 167.423 40.400,166.873 40.670,166.543 41.000 C 166.010 41.533,166.035 41.600,166.771 41.600 C 167.895 41.600,167.815 42.150,166.595 42.803 C 165.614 43.328,165.525 44.777,166.453 45.133 C 166.644 45.207,166.800 45.442,166.800 45.657 C 166.800 45.872,166.641 45.949,166.447 45.829 C 165.730 45.386,163.919 47.267,164.109 48.257 C 164.208 48.776,164.134 49.200,163.945 49.200 C 163.408 49.200,163.540 50.311,164.100 50.517 C 164.496 50.662,164.493 50.814,164.083 51.247 C 163.647 51.708,163.502 51.700,163.149 51.197 C 162.824 50.733,162.779 50.818,162.949 51.579 C 163.197 52.697,162.612 53.600,161.638 53.600 C 160.934 53.600,160.725 58.108,161.380 59.168 C 161.836 59.906,160.167 61.121,159.002 60.898 C 157.885 60.685,157.683 61.239,158.600 62.000 C 159.390 62.656,159.391 63.759,158.601 63.456 C 158.236 63.316,157.754 63.603,157.370 64.190 C 156.615 65.342,156.761 67.058,157.598 66.870 C 158.017 66.777,157.968 66.972,157.421 67.577 L 156.664 68.413 155.935 67.306 C 155.534 66.698,155.190 66.290,155.172 66.400 C 154.881 68.149,154.624 68.527,151.400 71.942 C 149.015 74.467,147.311 75.291,145.175 74.950 C 142.904 74.586,141.149 75.081,142.141 75.806 C 142.547 76.103,142.761 76.539,142.616 76.773 C 142.471 77.008,142.543 77.200,142.776 77.200 C 143.379 77.200,143.304 78.795,142.700 78.825 C 142.425 78.839,142.622 79.020,143.137 79.226 C 143.652 79.433,144.267 79.482,144.503 79.337 C 145.237 78.883,147.398 78.823,146.755 79.275 C 146.363 79.550,146.522 79.594,147.300 79.425 C 147.937 79.286,148.400 79.356,148.400 79.592 C 148.400 79.817,148.850 80.000,149.400 80.000 C 149.950 80.000,150.400 79.820,150.400 79.600 C 150.400 79.380,150.670 79.200,151.000 79.200 C 151.330 79.200,151.600 79.416,151.600 79.680 C 151.600 80.035,151.717 80.043,152.049 79.711 C 152.296 79.464,152.775 79.369,153.114 79.499 C 153.504 79.649,153.630 79.572,153.457 79.292 C 153.296 79.032,153.476 78.844,153.891 78.838 C 154.894 78.823,156.068 78.595,157.000 78.233 C 159.921 77.098,160.926 76.793,161.117 76.983 C 161.236 77.102,161.158 77.200,160.943 77.200 C 160.729 77.200,160.204 77.479,159.776 77.819 C 159.100 78.359,159.170 78.356,160.313 77.802 C 161.035 77.452,161.529 77.008,161.409 76.815 C 161.168 76.424,162.027 75.463,163.456 74.526 C 163.975 74.186,164.400 73.731,164.400 73.514 C 164.400 73.298,164.940 72.617,165.600 72.000 C 166.260 71.383,166.800 70.681,166.800 70.440 C 166.800 70.198,166.941 70.000,167.114 70.000 C 167.286 70.000,167.767 69.415,168.182 68.700 C 168.598 67.985,169.177 67.256,169.469 67.080 C 169.761 66.904,170.000 66.574,170.000 66.347 C 170.000 65.736,172.842 62.378,173.181 62.588 C 173.563 62.824,175.295 60.478,175.042 60.068 C 174.935 59.895,175.300 59.224,175.853 58.577 C 176.911 57.337,176.734 58.028,175.641 59.400 C 175.291 59.840,176.298 58.978,177.879 57.485 C 183.293 52.372,189.756 50.175,199.200 50.239 C 211.681 50.324,217.194 53.036,228.033 64.423 C 231.425 67.987,235.981 72.523,238.159 74.504 L 242.118 78.105 242.870 76.557 C 248.360 65.272,263.774 59.251,275.434 63.839 C 298.917 73.077,305.079 103.243,286.047 115.800 C 283.138 117.719,283.196 117.177,285.464 121.251 C 287.624 125.132,290.571 131.264,294.432 139.915 C 298.466 148.951,303.362 156.084,305.080 155.425 C 305.395 155.304,305.532 155.386,305.393 155.612 C 305.072 156.130,308.333 157.601,309.128 157.296 C 309.544 157.136,309.633 157.222,309.416 157.575 C 309.179 157.958,309.326 158.014,310.000 157.800 C 310.581 157.616,310.810 157.661,310.644 157.928 C 310.329 158.439,311.817 158.960,312.458 158.564 C 312.725 158.399,312.817 158.450,312.673 158.682 C 312.374 159.165,315.531 160.490,316.117 160.128 C 316.368 159.973,316.398 160.079,316.196 160.406 C 315.960 160.789,316.050 160.866,316.523 160.685 C 317.303 160.385,319.684 161.140,319.402 161.597 C 319.293 161.773,319.488 162.025,319.835 162.158 C 320.799 162.528,321.068 162.436,320.400 161.963 C 319.867 161.586,319.867 161.559,320.400 161.720 C 320.730 161.819,320.957 162.097,320.904 162.338 C 320.851 162.579,321.166 162.968,321.604 163.202 C 322.173 163.507,322.400 163.503,322.400 163.190 C 322.400 162.950,322.583 162.866,322.807 163.004 C 323.030 163.142,323.092 163.451,322.945 163.689 C 322.782 163.952,322.863 164.008,323.150 163.831 C 323.685 163.500,327.200 165.415,327.200 166.037 C 327.200 166.259,326.615 166.008,325.900 165.479 C 324.312 164.305,323.600 163.892,323.600 164.144 C 323.600 164.249,324.192 164.701,324.916 165.148 C 325.640 165.596,327.027 166.768,327.999 167.754 C 328.970 168.739,329.871 169.480,330.001 169.399 C 330.699 168.968,333.022 172.497,332.564 173.293 C 332.403 173.572,332.419 173.667,332.599 173.503 C 332.779 173.340,333.168 173.407,333.463 173.652 C 334.061 174.149,334.212 175.378,333.631 175.019 C 333.428 174.893,333.650 175.500,334.125 176.368 C 335.132 178.206,335.565 178.267,334.619 176.437 C 334.267 175.757,334.119 175.201,334.290 175.201 C 334.460 175.202,334.933 176.012,335.340 177.001 C 335.746 177.991,336.228 178.800,336.410 178.800 C 336.592 178.800,336.824 179.115,336.924 179.500 C 337.091 180.139,337.111 180.136,337.154 179.467 C 337.179 179.063,337.425 178.812,337.700 178.908 C 337.975 179.004,338.152 179.424,338.092 179.841 C 337.999 180.496,338.054 180.480,338.492 179.728 C 338.887 179.050,339.156 178.943,339.700 179.248 C 340.224 179.541,340.400 179.495,340.400 179.063 C 340.400 178.745,340.656 178.387,340.970 178.267 C 341.393 178.104,341.544 177.250,341.556 174.941 C 341.569 172.461,341.736 171.612,342.386 170.733 C 342.834 170.128,343.200 169.018,343.200 168.266 C 343.200 166.103,343.654 164.400,344.230 164.400 C 344.522 164.400,344.904 164.143,345.080 163.828 C 345.264 163.500,346.169 163.201,347.200 163.128 C 348.985 163.001,349.001 162.987,349.130 161.409 C 349.224 160.255,349.580 159.532,350.430 158.774 C 351.073 158.199,351.597 157.565,351.594 157.364 C 351.591 157.164,351.420 157.265,351.215 157.589 C 350.898 158.091,350.803 158.074,350.572 157.472 C 350.219 156.552,350.349 156.455,352.101 156.337 C 352.910 156.283,353.490 156.156,353.389 156.056 C 353.289 155.956,353.406 155.634,353.648 155.342 C 353.891 155.049,354.002 154.582,353.895 154.303 C 353.678 153.737,354.577 152.711,354.957 153.091 C 355.091 153.224,355.200 153.132,355.200 152.887 C 355.200 152.641,354.974 152.296,354.698 152.120 C 354.422 151.944,353.575 150.540,352.817 149.000 C 352.058 147.460,350.656 144.986,349.701 143.502 C 348.746 142.018,348.017 140.561,348.082 140.264 C 348.263 139.436,345.923 134.800,345.467 135.082 C 345.241 135.222,345.158 135.083,345.279 134.766 C 345.397 134.455,344.983 132.220,344.358 129.800 C 342.100 121.047,340.414 114.984,340.022 114.200 C 339.802 113.760,339.091 111.780,338.442 109.800 C 336.872 105.009,335.463 101.329,334.002 98.205 C 333.341 96.791,332.800 95.517,332.800 95.374 C 332.800 94.671,325.641 80.512,323.324 76.631 C 313.346 59.923,300.520 47.426,288.600 42.801 C 287.280 42.288,286.020 41.738,285.800 41.578 C 285.580 41.418,283.690 40.739,281.600 40.069 C 272.842 37.264,270.309 36.183,257.600 29.825 C 253.090 27.569,248.140 25.225,246.600 24.617 C 245.060 24.008,243.620 23.368,243.400 23.194 C 243.039 22.908,236.707 20.911,233.200 19.977 C 228.432 18.706,221.668 18.401,200.202 18.486 C 186.910 18.538,181.293 18.659,185.600 18.800 M169.800 19.600 C 169.508 20.073,169.899 20.073,171.000 19.600 C 171.771 19.269,171.769 19.255,170.924 19.228 C 170.442 19.213,169.936 19.380,169.800 19.600 M166.856 20.059 C 166.117 20.272,165.604 20.537,165.716 20.649 C 165.945 20.879,169.200 20.071,169.200 19.785 C 169.200 19.520,168.403 19.614,166.856 20.059 M158.900 22.996 C 158.185 23.307,157.600 23.651,157.600 23.760 C 157.600 23.952,160.428 22.878,160.767 22.558 C 161.116 22.227,160.147 22.454,158.900 22.996 M151.500 26.229 C 149.949 27.070,150.125 27.361,151.700 26.559 C 153.208 25.793,153.475 25.594,152.967 25.616 C 152.765 25.625,152.105 25.901,151.500 26.229 M132.400 35.400 C 131.850 35.714,131.580 35.972,131.800 35.972 C 132.020 35.972,132.650 35.714,133.200 35.400 C 133.750 35.086,134.020 34.828,133.800 34.828 C 133.580 34.828,132.950 35.086,132.400 35.400 M167.067 37.867 C 166.397 38.537,166.802 39.227,167.611 38.794 C 168.057 38.555,168.317 38.189,168.188 37.980 C 167.913 37.536,167.444 37.489,167.067 37.867 M116.128 41.339 C 115.208 41.593,114.335 41.924,114.186 42.075 C 114.038 42.226,114.854 42.102,116.000 41.800 C 117.146 41.498,118.184 41.149,118.308 41.025 C 118.613 40.721,118.110 40.793,116.128 41.339 M82.175 60.500 L 81.000 61.800 82.300 60.625 C 83.512 59.530,83.784 59.200,83.475 59.200 C 83.406 59.200,82.821 59.785,82.175 60.500 M173.841 61.663 C 173.114 62.700,172.979 62.360,173.632 61.139 C 173.870 60.695,174.159 60.425,174.273 60.540 C 174.388 60.654,174.193 61.160,173.841 61.663 M165.200 73.800 C 164.228 74.790,163.523 75.600,163.633 75.600 C 163.743 75.600,164.628 74.790,165.600 73.800 C 166.572 72.810,167.277 72.000,167.167 72.000 C 167.057 72.000,166.172 72.810,165.200 73.800 M151.300 80.676 C 151.685 80.776,152.315 80.776,152.700 80.676 C 153.085 80.575,152.770 80.493,152.000 80.493 C 151.230 80.493,150.915 80.575,151.300 80.676 M147.300 81.087 C 147.905 81.178,148.895 81.178,149.500 81.087 C 150.105 80.995,149.610 80.920,148.400 80.920 C 147.190 80.920,146.695 80.995,147.300 81.087 M180.600 113.849 C 174.243 114.355,161.439 117.006,162.422 117.614 C 162.727 117.802,162.446 118.014,161.663 118.186 C 160.979 118.336,160.250 118.354,160.042 118.226 C 159.650 117.984,153.849 119.982,154.130 120.263 C 154.217 120.351,154.789 120.232,155.400 120.000 C 156.011 119.768,156.580 119.647,156.664 119.731 C 156.749 119.815,155.959 120.209,154.909 120.606 C 153.173 121.263,150.044 122.742,145.200 125.196 C 144.210 125.698,141.257 127.543,138.637 129.297 C 128.884 135.827,122.142 142.488,116.264 151.400 C 114.813 153.600,112.782 156.570,111.751 158.000 C 93.925 182.711,97.191 223.668,119.023 249.200 C 144.134 278.567,178.583 288.584,217.233 277.756 C 220.845 276.744,224.498 275.748,225.352 275.544 C 226.205 275.340,227.285 274.969,227.752 274.721 C 228.528 274.308,228.551 274.328,228.028 274.962 C 227.485 275.620,227.531 275.620,228.911 274.962 C 229.722 274.575,230.256 274.076,230.119 273.834 C 229.983 273.595,230.013 273.527,230.185 273.683 C 231.486 274.856,246.371 263.851,251.975 257.573 C 276.012 230.649,281.488 196.115,266.968 163.024 C 265.912 160.617,264.767 158.352,264.424 157.990 C 264.081 157.629,263.741 157.078,263.669 156.767 C 263.415 155.665,261.135 152.000,260.704 152.000 C 260.463 152.000,260.380 151.887,260.518 151.749 C 261.097 151.170,253.989 142.072,249.933 138.200 C 248.550 136.880,247.851 136.295,248.379 136.900 C 249.680 138.390,248.841 138.304,247.400 136.800 C 246.768 136.140,246.405 135.600,246.595 135.600 C 246.784 135.600,246.512 135.145,245.989 134.588 C 245.466 134.032,244.818 133.661,244.548 133.764 C 244.279 133.868,243.820 133.648,243.529 133.276 C 243.043 132.655,243.065 132.648,243.800 133.200 C 244.535 133.752,244.557 133.745,244.071 133.124 C 243.780 132.752,243.314 132.535,243.035 132.642 C 242.756 132.749,242.274 132.513,241.964 132.118 C 241.450 131.463,241.462 131.448,242.100 131.949 C 242.485 132.251,242.800 132.398,242.800 132.276 C 242.800 132.154,242.227 131.647,241.528 131.149 C 240.828 130.650,240.389 130.458,240.552 130.722 C 240.715 130.986,240.207 130.823,239.424 130.361 C 237.928 129.478,237.424 128.863,238.800 129.600 C 239.240 129.835,239.600 129.939,239.600 129.831 C 239.600 129.433,235.783 127.410,235.260 127.530 C 234.963 127.598,234.837 127.464,234.981 127.231 C 235.145 126.966,234.987 126.907,234.555 127.073 C 234.093 127.250,233.962 127.185,234.155 126.873 C 234.332 126.586,234.238 126.487,233.909 126.613 C 233.617 126.726,233.022 126.534,232.589 126.187 C 231.825 125.576,231.828 125.570,232.700 125.992 C 234.316 126.775,233.645 126.039,231.958 125.179 C 231.055 124.718,230.431 124.527,230.572 124.755 C 230.745 125.035,230.436 125.031,229.613 124.745 C 228.299 124.287,227.495 123.481,228.679 123.809 C 229.076 123.919,228.056 123.354,226.412 122.554 C 224.769 121.754,223.017 121.100,222.520 121.100 C 222.022 121.100,221.699 120.963,221.803 120.795 C 222.273 120.035,207.821 115.761,200.800 114.583 C 197.120 113.966,184.776 113.517,180.600 113.849 M201.400 116.600 C 240.890 123.848,264.089 146.017,271.985 184.053 C 276.292 204.799,271.658 227.979,259.681 245.600 C 253.007 255.420,242.197 265.336,234.848 268.380 C 234.162 268.664,233.600 269.068,233.600 269.277 C 233.600 270.162,230.213 272.449,226.992 273.739 C 224.848 274.598,220.426 275.441,220.982 274.885 C 221.103 274.763,220.928 274.244,220.592 273.732 C 219.961 272.768,220.234 272.561,221.870 272.763 C 222.128 272.795,222.451 272.642,222.586 272.422 C 222.836 272.018,222.272 271.837,219.400 271.405 C 217.477 271.116,213.351 270.000,207.400 268.160 C 202.213 266.556,201.775 266.538,195.681 267.670 C 188.711 268.965,177.569 268.970,172.800 267.680 C 161.037 264.499,140.259 248.741,128.571 234.138 C 114.005 215.938,111.935 211.841,112.002 201.334 C 112.209 168.557,112.339 165.547,113.830 159.200 C 114.165 157.770,114.523 156.203,114.623 155.718 C 115.381 152.064,123.725 141.803,130.862 135.748 C 149.558 119.885,177.690 112.249,201.400 116.600 M148.800 122.400 C 147.590 123.039,146.730 123.571,146.889 123.581 C 147.263 123.606,151.600 121.555,151.600 121.353 C 151.600 121.026,150.918 121.281,148.800 122.400 M47.787 122.600 C 47.684 122.930,47.512 123.479,47.405 123.821 C 47.297 124.162,47.366 124.345,47.557 124.227 C 47.748 124.109,47.991 123.559,48.097 123.006 C 48.306 121.913,48.090 121.630,47.787 122.600 M143.500 125.029 C 142.005 125.840,142.096 126.178,143.600 125.400 C 144.260 125.059,144.800 124.694,144.800 124.590 C 144.800 124.332,144.757 124.347,143.500 125.029 M140.700 126.629 C 139.205 127.440,139.296 127.778,140.800 127.000 C 141.460 126.659,142.000 126.294,142.000 126.190 C 142.000 125.932,141.957 125.947,140.700 126.629 M133.800 131.435 L 132.600 132.466 133.900 131.606 C 134.615 131.133,135.200 130.668,135.200 130.573 C 135.200 130.273,135.031 130.378,133.800 131.435 M44.777 134.261 C 44.555 134.844,44.432 135.497,44.504 135.712 C 44.576 135.927,44.835 135.450,45.080 134.651 C 45.594 132.974,45.374 132.690,44.777 134.261 M126.581 137.300 L 125.000 139.000 126.700 137.419 C 128.281 135.948,128.584 135.600,128.281 135.600 C 128.216 135.600,127.451 136.365,126.581 137.300 M250.625 139.300 L 251.800 140.600 250.500 139.425 C 249.785 138.779,249.200 138.194,249.200 138.125 C 249.200 137.816,249.530 138.088,250.625 139.300 M349.252 141.923 C 349.759 142.870,350.438 143.860,350.761 144.123 C 351.469 144.698,350.352 142.685,349.123 141.174 C 348.465 140.364,348.487 140.490,349.252 141.923 M351.964 145.933 C 352.180 146.336,352.674 146.921,353.063 147.233 C 353.564 147.635,353.504 147.422,352.857 146.500 C 351.869 145.091,351.331 144.749,351.964 145.933 M355.550 150.900 C 356.258 151.945,356.930 152.800,357.042 152.800 C 357.394 152.800,355.836 150.377,355.030 149.673 C 354.607 149.303,354.840 149.854,355.550 150.900 M358.830 155.800 C 359.324 156.680,359.900 157.580,360.110 157.800 C 360.709 158.428,359.339 155.894,358.596 155.000 C 358.230 154.560,358.335 154.920,358.830 155.800 M360.800 159.325 C 360.800 159.633,362.760 163.367,362.779 163.096 C 362.806 162.708,361.164 159.200,360.956 159.200 C 360.870 159.200,360.800 159.256,360.800 159.325 M72.181 165.700 L 70.600 167.400 72.300 165.819 C 73.881 164.348,74.184 164.000,73.881 164.000 C 73.816 164.000,73.051 164.765,72.181 165.700 M343.600 166.400 C 343.600 166.620,343.971 166.800,344.424 166.800 C 344.877 166.800,345.136 166.620,345.000 166.400 C 344.864 166.180,344.493 166.000,344.176 166.000 C 343.859 166.000,343.600 166.180,343.600 166.400 M328.996 167.596 C 329.626 168.254,330.065 168.857,329.971 168.938 C 329.877 169.018,329.210 168.480,328.489 167.742 C 327.767 167.004,327.329 166.400,327.514 166.400 C 327.699 166.400,328.366 166.938,328.996 167.596 M364.254 167.800 C 364.674 169.703,365.248 170.846,364.956 169.200 C 364.820 168.430,364.546 167.530,364.349 167.200 C 364.114 166.808,364.081 167.016,364.254 167.800 M331.143 171.500 C 331.644 172.215,332.139 172.800,332.241 172.800 C 332.587 172.800,331.650 171.340,330.937 170.767 C 330.436 170.365,330.496 170.578,331.143 171.500 M60.975 175.300 L 59.800 176.600 61.100 175.425 C 61.815 174.779,62.400 174.194,62.400 174.125 C 62.400 173.816,62.070 174.088,60.975 175.300 M23.646 176.267 C 23.621 176.524,23.484 177.064,23.341 177.467 C 23.140 178.036,23.194 178.097,23.579 177.742 C 23.852 177.491,23.989 176.951,23.884 176.542 C 23.779 176.134,23.672 176.010,23.646 176.267 M64.931 245.400 C 64.933 246.940,65.005 247.521,65.092 246.691 C 65.179 245.861,65.177 244.601,65.089 243.891 C 65.000 243.181,64.929 243.860,64.931 245.400 M346.067 252.780 C 345.833 253.451,345.727 254.000,345.831 254.000 C 346.101 254.000,346.856 251.922,346.657 251.724 C 346.567 251.633,346.301 252.108,346.067 252.780 M41.504 257.412 C 41.608 257.955,41.835 258.400,42.009 258.400 C 42.380 258.400,42.040 256.872,41.610 256.606 C 41.448 256.506,41.401 256.869,41.504 257.412 M64.140 261.600 C 64.140 263.470,64.209 264.235,64.293 263.300 C 64.377 262.365,64.377 260.835,64.293 259.900 C 64.209 258.965,64.140 259.730,64.140 261.600 M188.305 285.483 C 188.802 285.579,189.522 285.575,189.905 285.475 C 190.287 285.375,189.880 285.296,189.000 285.301 C 188.120 285.305,187.807 285.387,188.305 285.483 M104.200 295.600 C 105.059 296.480,105.852 297.200,105.962 297.200 C 106.072 297.200,105.459 296.480,104.600 295.600 C 103.741 294.720,102.948 294.000,102.838 294.000 C 102.728 294.000,103.341 294.720,104.200 295.600 M206.905 349.887 C 207.514 349.979,208.414 349.977,208.905 349.882 C 209.397 349.787,208.900 349.711,207.800 349.714 C 206.700 349.717,206.297 349.795,206.905 349.887 M125.200 355.182 C 125.530 355.405,126.145 355.591,126.567 355.594 C 127.590 355.602,127.271 355.373,125.800 355.044 C 124.924 354.848,124.762 354.885,125.200 355.182 M188.100 385.876 C 188.485 385.976,189.115 385.976,189.500 385.876 C 189.885 385.775,189.570 385.693,188.800 385.693 C 188.030 385.693,187.715 385.775,188.100 385.876 " stroke="none" fill="#994907" fill-rule="evenodd"></path><path id="path3" d="M190.666 17.467 C 190.539 17.594,186.602 17.741,181.918 17.793 C 176.576 17.852,173.027 18.058,172.400 18.345 C 171.599 18.712,172.196 18.764,175.400 18.606 C 188.298 17.974,214.265 17.684,219.800 18.111 C 222.155 18.292,223.011 18.262,222.275 18.022 C 221.656 17.821,220.805 17.722,220.383 17.803 C 219.962 17.884,219.510 17.778,219.380 17.568 C 219.126 17.157,191.074 17.059,190.666 17.467 M246.345 23.991 C 247.085 24.459,247.764 24.769,247.855 24.679 C 248.115 24.418,247.094 23.724,246.000 23.418 C 245.181 23.189,245.243 23.292,246.345 23.991 M249.654 25.387 C 249.990 25.723,252.800 26.816,252.800 26.611 C 252.800 26.501,252.148 26.138,251.351 25.805 C 249.875 25.189,249.318 25.051,249.654 25.387 M149.300 26.488 C 148.805 26.727,148.400 27.079,148.400 27.270 C 148.400 27.462,148.850 27.324,149.400 26.963 C 150.867 26.002,150.816 25.757,149.300 26.488 M255.600 28.400 C 256.370 28.822,257.180 29.166,257.400 29.166 C 257.620 29.166,257.170 28.822,256.400 28.400 C 255.630 27.978,254.820 27.634,254.600 27.634 C 254.380 27.634,254.830 27.978,255.600 28.400 M135.419 33.435 C 134.590 34.041,134.921 34.131,136.173 33.641 C 136.599 33.474,136.777 33.233,136.569 33.104 C 136.361 32.976,135.844 33.125,135.419 33.435 M265.200 33.161 C 265.200 33.562,267.624 34.510,267.912 34.221 C 268.012 34.121,267.623 33.921,267.047 33.776 C 266.471 33.632,266.000 33.353,266.000 33.157 C 266.000 32.960,265.820 32.800,265.600 32.800 C 265.380 32.800,265.200 32.962,265.200 33.161 M268.800 34.733 C 269.130 34.936,269.850 35.224,270.400 35.371 C 271.095 35.557,271.217 35.525,270.800 35.267 C 270.470 35.064,269.750 34.776,269.200 34.629 C 268.505 34.443,268.383 34.475,268.800 34.733 M280.576 39.413 C 281.004 39.736,281.634 39.999,281.976 39.998 C 282.319 39.996,282.084 39.726,281.454 39.398 C 280.004 38.641,279.566 38.649,280.576 39.413 M287.700 41.720 C 288.305 41.959,288.800 42.300,288.800 42.477 C 288.800 42.655,288.980 42.800,289.200 42.800 C 290.079 42.800,289.525 42.052,288.340 41.639 C 286.738 41.081,286.241 41.143,287.700 41.720 M306.800 54.382 C 306.800 54.517,307.825 55.611,309.078 56.814 C 310.331 58.016,311.096 58.647,310.778 58.215 C 309.997 57.156,306.800 54.075,306.800 54.382 M173.355 63.568 C 172.104 65.456,170.253 68.239,169.241 69.753 C 161.989 80.599,150.472 83.802,135.865 79.034 C 127.753 76.386,120.259 75.772,114.920 77.318 C 99.678 81.733,88.650 99.471,91.818 114.474 C 94.191 125.713,91.546 136.540,82.697 151.800 C 77.051 161.536,74.181 165.023,67.257 170.559 C 61.122 175.464,60.374 176.194,58.475 179.133 C 52.262 188.745,51.731 198.770,56.786 211.000 C 61.739 222.984,62.043 223.913,64.433 234.400 C 64.708 235.610,65.048 236.735,65.187 236.900 C 65.513 237.287,70.535 225.881,74.212 216.400 C 79.824 201.930,80.446 200.459,83.986 193.273 C 89.170 182.748,94.457 174.122,99.564 167.855 C 100.794 166.346,102.487 164.186,103.326 163.055 C 105.363 160.313,106.450 159.184,106.830 159.419 C 107.175 159.631,108.584 157.994,111.500 153.993 C 117.313 146.016,124.133 138.487,128.800 134.892 C 129.570 134.299,131.010 133.157,132.000 132.355 C 160.344 109.388,201.888 107.156,235.400 126.800 C 266.020 144.748,282.051 185.043,272.640 220.400 C 271.146 226.011,270.997 226.465,269.177 230.916 C 258.766 256.375,240.672 272.702,212.513 282.046 C 209.056 283.193,207.146 284.030,206.997 284.465 C 206.747 285.191,197.275 292.680,190.237 297.714 C 184.331 301.939,181.806 303.946,176.800 308.393 C 172.528 312.188,165.861 317.339,163.890 318.367 L 162.802 318.934 165.004 320.167 C 169.178 322.504,171.930 324.871,179.915 332.992 C 194.265 347.587,199.602 350.291,211.798 349.143 C 220.372 348.337,227.839 344.905,239.066 336.612 C 240.862 335.286,244.552 332.767,247.266 331.015 C 266.946 318.314,281.320 300.607,289.816 278.600 C 295.089 264.943,296.176 262.564,300.323 255.600 C 303.132 250.884,309.591 242.720,315.195 236.800 C 339.147 211.503,344.006 194.232,332.722 174.510 C 328.672 167.431,323.575 163.626,312.732 159.586 C 302.324 155.709,299.814 152.942,293.157 138.000 C 287.885 126.166,281.412 113.996,277.150 107.903 C 273.631 102.873,272.896 101.374,270.531 94.400 C 268.125 87.307,263.746 83.909,257.200 84.056 C 250.165 84.214,236.943 76.152,230.602 67.838 C 230.012 67.064,229.230 66.339,228.864 66.227 C 227.046 65.667,220.238 64.759,213.681 64.202 C 209.655 63.860,202.815 63.061,198.481 62.427 C 191.452 61.399,184.789 60.702,177.914 60.278 L 175.629 60.137 173.355 63.568 M75.800 66.400 C 75.402 66.840,75.278 67.200,75.524 67.200 C 75.770 67.200,76.165 66.840,76.400 66.400 C 76.635 65.960,76.760 65.600,76.676 65.600 C 76.592 65.600,76.198 65.960,75.800 66.400 M320.324 71.033 C 320.840 72.028,322.000 73.056,322.000 72.519 C 322.000 72.310,321.526 71.703,320.946 71.170 C 320.005 70.304,319.938 70.290,320.324 71.033 M324.518 77.752 C 325.003 78.495,325.458 79.052,325.529 78.989 C 325.774 78.773,324.380 76.400,324.008 76.400 C 323.804 76.400,324.034 77.008,324.518 77.752 M330.000 88.629 C 330.000 88.754,330.270 89.127,330.600 89.457 C 331.251 90.108,331.333 90.011,330.957 89.033 C 330.729 88.438,330.000 88.130,330.000 88.629 M336.025 102.200 C 336.025 102.420,336.290 102.949,336.613 103.376 C 336.936 103.804,337.200 103.973,337.200 103.753 C 337.200 103.533,336.936 103.004,336.613 102.576 C 336.290 102.149,336.025 101.980,336.025 102.200 M95.034 131.899 C 94.685 132.248,93.971 129.970,94.275 129.479 C 94.437 129.217,94.701 129.587,94.901 130.356 C 95.090 131.089,95.150 131.783,95.034 131.899 M199.650 130.231 C 170.887 137.967,181.421 188.570,213.053 194.623 C 232.706 198.383,256.482 186.061,255.465 172.643 C 253.832 151.109,219.374 124.926,199.650 130.231 M346.428 134.492 C 346.382 134.965,347.686 138.048,347.858 137.875 C 347.945 137.788,347.666 136.925,347.237 135.958 C 346.808 134.991,346.444 134.331,346.428 134.492 M348.000 138.714 C 348.000 138.913,348.386 139.419,348.858 139.838 C 349.710 140.595,349.713 140.594,349.256 139.722 C 348.746 138.750,348.000 138.151,348.000 138.714 M359.881 156.600 C 360.248 157.370,360.689 158.000,360.861 158.000 C 361.032 158.000,360.801 157.370,360.347 156.600 C 359.893 155.830,359.452 155.200,359.367 155.200 C 359.282 155.200,359.513 155.830,359.881 156.600 M30.637 156.600 C 30.276 157.150,30.137 157.600,30.327 157.600 C 30.516 157.600,30.877 157.150,31.127 156.600 C 31.378 156.050,31.517 155.600,31.437 155.600 C 31.357 155.600,30.997 156.050,30.637 156.600 M363.040 162.800 C 363.327 163.870,364.411 165.638,364.383 164.989 C 364.374 164.775,364.008 163.970,363.569 163.200 C 362.975 162.155,362.840 162.054,363.040 162.800 M366.400 175.533 C 366.400 176.230,366.583 176.800,366.808 176.800 C 367.050 176.800,367.108 176.353,366.951 175.700 C 366.575 174.130,366.400 174.077,366.400 175.533 M367.709 185.200 C 367.709 186.190,367.787 186.595,367.882 186.100 C 367.978 185.605,367.978 184.795,367.882 184.300 C 367.787 183.805,367.709 184.210,367.709 185.200 M366.617 193.700 C 366.203 195.016,366.027 198.205,366.436 197.000 C 366.898 195.638,367.232 193.200,366.957 193.200 C 366.857 193.200,366.704 193.425,366.617 193.700 M362.629 209.029 C 362.481 209.615,362.438 210.172,362.532 210.266 C 362.627 210.360,362.824 209.958,362.971 209.371 C 363.119 208.785,363.162 208.228,363.068 208.134 C 362.973 208.040,362.776 208.442,362.629 209.029 M357.081 224.305 C 356.807 225.733,356.961 225.843,357.520 224.616 C 357.767 224.073,357.817 223.534,357.631 223.419 C 357.444 223.304,357.197 223.702,357.081 224.305 M354.457 231.657 C 354.175 232.109,354.032 232.566,354.140 232.673 C 354.247 232.781,354.544 232.478,354.800 232.000 C 355.405 230.870,355.124 230.590,354.457 231.657 M350.093 243.476 C 349.619 244.936,349.381 245.966,349.566 245.765 C 350.002 245.291,351.331 241.198,351.119 240.985 C 351.029 240.896,350.568 242.017,350.093 243.476 M348.400 247.703 C 348.400 247.759,348.223 248.422,348.007 249.176 C 347.572 250.693,347.987 250.414,348.715 248.700 C 348.998 248.034,349.028 247.600,348.791 247.600 C 348.576 247.600,348.400 247.646,348.400 247.703 M344.990 256.830 C 344.612 258.022,344.927 258.115,345.467 256.971 C 345.719 256.437,345.774 256.000,345.589 256.000 C 345.405 256.000,345.135 256.374,344.990 256.830 M341.436 267.053 C 341.051 268.273,340.812 269.346,340.904 269.438 C 340.996 269.530,341.299 268.839,341.577 267.903 C 341.855 266.966,342.253 265.991,342.461 265.736 C 342.674 265.473,342.686 265.177,342.487 265.054 C 342.293 264.934,341.820 265.834,341.436 267.053 M339.418 272.618 C 339.041 273.414,338.813 274.147,338.913 274.247 C 339.013 274.347,339.404 273.778,339.782 272.982 C 340.159 272.186,340.387 271.453,340.287 271.353 C 340.187 271.253,339.796 271.822,339.418 272.618 M337.029 279.829 C 336.881 280.415,336.838 280.972,336.932 281.066 C 337.027 281.160,337.224 280.758,337.371 280.171 C 337.519 279.585,337.562 279.028,337.468 278.934 C 337.373 278.840,337.176 279.242,337.029 279.829 M335.636 283.239 C 334.966 285.474,335.272 285.574,336.062 283.378 C 336.413 282.400,336.572 281.600,336.414 281.600 C 336.256 281.600,335.906 282.338,335.636 283.239 M332.663 291.283 C 332.338 292.525,332.585 292.589,333.126 291.402 C 333.377 290.851,333.428 290.400,333.238 290.400 C 333.048 290.400,332.789 290.797,332.663 291.283 M53.696 293.900 C 53.959 294.615,54.316 295.200,54.488 295.200 C 54.996 295.200,54.833 294.665,53.999 293.600 L 53.216 292.600 53.696 293.900 M330.471 296.654 C 330.180 296.970,330.015 297.446,330.104 297.713 C 330.198 297.995,330.475 297.807,330.765 297.265 C 331.358 296.157,331.211 295.851,330.471 296.654 M327.494 303.303 L 326.788 304.600 327.594 303.656 C 328.280 302.852,328.646 301.994,328.300 302.003 C 328.245 302.004,327.882 302.589,327.494 303.303 M58.419 303.316 C 58.384 303.906,60.070 306.909,60.912 307.756 L 61.750 308.600 61.076 307.600 C 60.705 307.050,59.960 305.790,59.419 304.800 C 58.879 303.810,58.429 303.142,58.419 303.316 M320.473 315.800 C 320.222 316.350,320.148 316.799,320.309 316.797 C 320.469 316.795,320.808 316.345,321.062 315.797 C 321.317 315.249,321.391 314.800,321.227 314.800 C 321.063 314.800,320.723 315.250,320.473 315.800 M317.414 320.635 C 317.041 321.204,316.826 321.759,316.936 321.869 C 317.045 321.979,317.357 321.648,317.627 321.134 C 317.898 320.620,318.318 320.068,318.560 319.906 C 318.876 319.695,318.872 319.611,318.546 319.606 C 318.296 319.603,317.787 320.066,317.414 320.635 M70.400 321.464 C 70.400 321.682,70.895 322.297,71.500 322.830 L 72.600 323.800 71.600 322.600 C 71.050 321.940,70.555 321.325,70.500 321.233 C 70.445 321.142,70.400 321.245,70.400 321.464 M73.600 325.400 C 75.332 327.187,75.543 327.187,74.117 325.400 C 73.503 324.630,72.830 324.000,72.622 324.000 C 72.413 324.000,72.854 324.630,73.600 325.400 M313.422 326.315 C 312.554 327.572,312.113 328.383,312.441 328.118 C 313.303 327.423,315.710 323.997,315.325 324.015 C 315.146 324.024,314.290 325.059,313.422 326.315 M305.641 335.010 C 303.793 336.874,302.415 338.400,302.577 338.400 C 302.739 338.400,304.375 336.870,306.211 335.000 C 308.048 333.130,309.427 331.604,309.275 331.610 C 309.124 331.615,307.488 333.145,305.641 335.010 M81.600 333.325 C 81.600 333.394,82.185 333.979,82.900 334.625 L 84.200 335.800 83.025 334.500 C 81.930 333.288,81.600 333.016,81.600 333.325 M85.756 337.111 C 86.172 337.593,87.162 338.354,87.956 338.803 C 89.532 339.693,89.231 339.407,86.200 337.135 C 85.003 336.237,85.002 336.237,85.756 337.111 M94.000 342.996 C 94.000 343.270,96.449 344.484,96.632 344.301 C 96.719 344.214,96.162 343.844,95.395 343.478 C 94.628 343.112,94.000 342.895,94.000 342.996 M97.800 345.100 C 98.240 345.539,98.735 345.820,98.900 345.725 C 99.065 345.630,99.200 345.722,99.200 345.930 C 99.200 346.137,99.605 346.409,100.100 346.533 C 101.227 346.817,100.215 345.959,98.200 344.921 C 97.001 344.303,97.001 344.303,97.800 345.100 M284.094 350.356 C 282.715 350.960,281.679 351.546,281.791 351.658 C 282.004 351.870,286.800 349.687,286.800 349.377 C 286.800 349.153,287.022 349.073,284.094 350.356 M108.200 350.155 C 108.860 350.455,109.850 350.811,110.400 350.946 C 111.203 351.143,111.164 351.084,110.200 350.645 C 109.540 350.345,108.550 349.989,108.000 349.854 C 107.197 349.657,107.236 349.716,108.200 350.155 M276.476 353.740 C 275.087 354.223,274.080 354.747,274.239 354.905 C 274.397 355.064,274.723 355.038,274.963 354.849 C 275.203 354.660,276.345 354.198,277.500 353.821 C 278.655 353.444,279.600 353.060,279.600 352.968 C 279.600 352.699,279.151 352.810,276.476 353.740 M125.600 356.000 C 126.150 356.176,126.960 356.320,127.400 356.320 C 128.033 356.320,127.992 356.254,127.200 356.000 C 126.650 355.824,125.840 355.680,125.400 355.680 C 124.767 355.680,124.808 355.746,125.600 356.000 M270.800 355.952 C 270.470 356.132,269.300 356.517,268.200 356.808 C 266.363 357.293,263.728 358.800,264.717 358.800 C 264.951 358.800,265.404 358.539,265.724 358.219 C 266.043 357.900,266.383 357.716,266.478 357.812 C 266.574 357.907,267.990 357.459,269.626 356.816 C 271.262 356.173,272.330 355.642,272.000 355.636 C 271.670 355.629,271.130 355.772,270.800 355.952 M131.368 357.375 C 132.169 357.819,132.666 357.894,132.948 357.612 C 133.231 357.329,133.178 357.198,132.780 357.195 C 132.461 357.192,131.750 357.085,131.200 356.958 C 130.279 356.744,130.293 356.778,131.368 357.375 M138.000 359.925 C 138.770 360.295,139.490 360.711,139.600 360.849 C 139.954 361.292,145.600 363.863,145.600 363.581 C 145.600 363.432,144.475 362.808,143.100 362.195 C 141.725 361.582,140.510 360.947,140.400 360.785 C 140.184 360.466,137.264 359.183,136.851 359.226 C 136.713 359.240,137.230 359.554,138.000 359.925 M259.859 360.598 C 259.530 360.928,258.772 361.383,258.175 361.610 C 257.578 361.837,257.187 362.120,257.306 362.239 C 257.569 362.502,260.645 360.974,260.996 360.406 C 261.382 359.781,260.532 359.925,259.859 360.598 M255.300 363.034 C 254.585 363.346,254.000 363.788,254.000 364.015 C 254.000 364.466,254.826 364.101,256.200 363.042 C 257.171 362.294,256.996 362.292,255.300 363.034 M150.174 366.358 C 150.323 366.599,150.816 366.995,151.271 367.238 C 151.862 367.554,152.020 367.556,151.826 367.242 C 151.677 367.001,151.184 366.605,150.729 366.362 C 150.138 366.046,149.980 366.044,150.174 366.358 M245.600 369.078 C 245.270 369.196,244.814 369.522,244.587 369.803 C 244.360 370.084,243.378 370.762,242.403 371.309 C 241.429 371.856,240.551 372.547,240.452 372.845 C 240.337 373.188,240.520 373.137,240.954 372.703 C 241.330 372.327,242.214 371.745,242.919 371.409 C 243.623 371.073,244.740 370.355,245.400 369.813 C 246.626 368.808,246.655 368.701,245.600 369.078 M158.800 371.576 C 159.350 372.019,160.010 372.386,160.267 372.391 C 160.523 372.396,160.824 372.625,160.935 372.900 C 161.068 373.230,161.148 373.244,161.168 372.940 C 161.186 372.688,160.435 372.096,159.500 371.625 C 157.893 370.817,157.855 370.814,158.800 371.576 M238.344 374.024 L 237.400 374.847 238.600 374.145 C 240.179 373.220,240.203 373.200,239.711 373.200 C 239.479 373.200,238.864 373.571,238.344 374.024 M164.800 375.198 C 166.340 376.468,167.223 376.919,166.976 376.309 C 166.863 376.029,166.102 375.479,165.285 375.086 L 163.800 374.373 164.800 375.198 M235.362 375.800 C 234.769 376.350,234.099 376.800,233.875 376.800 C 233.650 376.800,233.583 376.917,233.726 377.059 C 233.955 377.289,237.200 375.315,237.200 374.946 C 237.200 374.509,236.308 374.924,235.362 375.800 M167.610 376.928 C 168.265 377.631,170.800 379.116,170.800 378.796 C 170.800 378.587,170.035 378.030,169.100 377.559 C 168.165 377.087,167.495 376.803,167.610 376.928 M172.400 379.973 C 172.400 380.160,173.075 380.608,173.900 380.969 C 174.725 381.330,175.968 381.987,176.663 382.428 C 178.219 383.417,182.801 385.241,182.797 384.870 C 182.796 384.722,181.595 384.150,180.129 383.600 C 178.662 383.050,177.268 382.407,177.031 382.171 C 176.322 381.467,172.400 379.605,172.400 379.973 M227.200 380.709 C 225.990 381.293,224.775 381.989,224.500 382.256 C 223.996 382.747,219.897 384.400,219.185 384.400 C 218.973 384.400,218.800 384.580,218.800 384.800 C 218.800 385.378,218.997 385.327,221.863 384.000 C 223.289 383.340,224.601 382.800,224.779 382.800 C 224.957 382.800,225.328 382.528,225.604 382.195 C 225.880 381.863,226.892 381.243,227.853 380.818 C 228.814 380.393,229.600 379.945,229.600 379.822 C 229.600 379.536,229.746 379.482,227.200 380.709 M183.200 385.112 C 183.200 385.634,185.091 386.242,185.485 385.848 C 185.622 385.712,185.379 385.600,184.947 385.600 C 184.514 385.600,183.944 385.384,183.680 385.120 C 183.315 384.755,183.200 384.753,183.200 385.112 M214.600 386.071 C 213.323 386.500,192.532 386.637,188.271 386.244 C 186.207 386.054,185.997 386.088,187.000 386.447 C 189.193 387.232,213.519 387.134,215.200 386.333 C 216.758 385.590,216.444 385.453,214.600 386.071 " stroke="none" fill="#fafaf9" fill-rule="evenodd"></path><path id="path4" d="M188.100 17.876 C 188.485 17.976,189.115 17.976,189.500 17.876 C 189.885 17.775,189.570 17.693,188.800 17.693 C 188.030 17.693,187.715 17.775,188.100 17.876 M197.800 18.015 C 193.076 18.175,195.085 18.253,205.476 18.315 C 213.218 18.362,219.636 18.265,219.738 18.100 C 219.953 17.752,207.106 17.702,197.800 18.015 M176.300 18.682 C 176.795 18.778,177.605 18.778,178.100 18.682 C 178.595 18.587,178.190 18.509,177.200 18.509 C 176.210 18.509,175.805 18.587,176.300 18.682 M223.700 18.676 C 224.085 18.776,224.715 18.776,225.100 18.676 C 225.485 18.575,225.170 18.493,224.400 18.493 C 223.630 18.493,223.315 18.575,223.700 18.676 M163.900 20.561 C 163.295 20.777,162.800 21.112,162.800 21.304 C 162.800 21.699,164.106 21.359,165.600 20.576 C 166.829 19.931,165.688 19.921,163.900 20.561 M235.400 20.543 C 237.106 21.321,238.800 21.677,238.800 21.258 C 238.800 21.061,238.281 20.796,237.647 20.669 C 237.012 20.542,235.977 20.339,235.347 20.217 L 234.200 19.996 235.400 20.543 M157.423 23.062 C 155.791 23.650,154.657 24.391,154.947 24.680 C 155.038 24.772,156.258 24.299,157.657 23.629 C 160.293 22.366,160.171 22.071,157.423 23.062 M243.350 23.120 C 243.602 23.526,247.200 24.897,247.200 24.586 C 247.200 24.361,245.220 23.369,244.050 23.008 C 243.443 22.820,243.190 22.861,243.350 23.120 M249.215 25.682 C 252.907 27.549,253.200 27.643,253.200 26.968 C 253.200 26.630,253.057 26.441,252.882 26.549 C 252.708 26.657,251.833 26.418,250.939 26.018 C 248.434 24.896,247.177 24.651,249.215 25.682 M149.600 26.800 C 148.292 27.823,149.055 27.823,150.600 26.800 C 151.260 26.363,151.530 26.008,151.200 26.012 C 150.870 26.015,150.150 26.370,149.600 26.800 M147.000 28.027 C 145.655 28.889,145.839 29.038,147.381 28.336 C 147.942 28.080,148.400 27.720,148.400 27.536 C 148.400 27.118,148.443 27.103,147.000 28.027 M255.905 28.968 C 259.403 30.854,259.701 30.950,259.114 30.011 C 258.853 29.593,258.529 29.321,258.393 29.405 C 258.257 29.489,257.195 29.117,256.033 28.579 C 253.030 27.187,252.965 27.384,255.905 28.968 M143.700 29.459 C 142.985 29.812,142.400 30.262,142.400 30.460 C 142.400 30.795,143.796 30.176,145.200 29.221 C 146.128 28.589,145.150 28.744,143.700 29.459 M260.806 31.154 C 260.816 31.586,264.875 33.659,265.143 33.369 C 265.284 33.216,265.178 33.011,264.906 32.914 C 264.634 32.817,263.599 32.326,262.606 31.823 C 261.613 31.320,260.803 31.019,260.806 31.154 M137.711 32.393 C 137.002 32.775,136.530 33.196,136.661 33.328 C 136.984 33.651,139.200 32.482,139.200 31.990 C 139.200 31.775,139.155 31.622,139.100 31.649 C 139.045 31.676,138.420 32.011,137.711 32.393 M269.000 35.353 C 272.015 36.862,272.400 36.986,272.400 36.454 C 272.400 36.263,271.275 35.699,269.900 35.199 C 266.087 33.814,265.966 33.835,269.000 35.353 M130.865 35.592 C 130.130 36.002,129.410 36.464,129.265 36.618 C 128.813 37.098,130.880 36.340,132.172 35.552 C 133.765 34.580,132.612 34.616,130.865 35.592 M123.500 38.520 C 122.185 39.040,122.012 39.775,123.300 39.373 C 124.540 38.986,125.959 37.987,125.189 38.043 C 124.865 38.066,124.105 38.281,123.500 38.520 M276.400 38.128 C 276.400 38.413,280.859 40.074,281.067 39.866 C 281.279 39.655,278.906 38.538,277.500 38.187 C 276.895 38.037,276.400 38.010,276.400 38.128 M285.600 41.395 C 285.600 41.568,288.272 42.800,288.649 42.800 C 289.313 42.800,288.543 42.068,287.472 41.680 C 286.030 41.159,285.600 41.093,285.600 41.395 M113.000 42.000 C 112.864 42.220,113.023 42.400,113.353 42.400 C 113.683 42.400,114.064 42.220,114.200 42.000 C 114.336 41.780,114.177 41.600,113.847 41.600 C 113.517 41.600,113.136 41.780,113.000 42.000 M110.800 42.400 C 110.800 42.620,111.059 42.800,111.376 42.800 C 111.693 42.800,112.064 42.620,112.200 42.400 C 112.336 42.180,112.077 42.000,111.624 42.000 C 111.171 42.000,110.800 42.180,110.800 42.400 M291.811 44.138 C 293.767 45.471,296.604 46.886,295.600 46.028 C 294.556 45.135,291.854 43.600,291.327 43.600 C 291.159 43.600,291.377 43.842,291.811 44.138 M102.941 44.797 C 102.118 45.129,101.289 46.000,101.796 46.000 C 102.183 46.000,104.400 44.799,104.400 44.590 C 104.400 44.326,103.949 44.391,102.941 44.797 M98.000 47.514 C 97.450 47.884,96.910 48.300,96.800 48.439 C 96.690 48.578,95.581 49.264,94.336 49.964 C 93.091 50.663,91.975 51.488,91.856 51.797 C 91.696 52.216,98.545 47.915,99.567 46.957 C 100.037 46.515,98.867 46.931,98.000 47.514 M297.777 47.791 C 298.424 48.320,299.114 48.653,299.310 48.532 C 299.506 48.411,299.107 47.972,298.424 47.556 C 296.704 46.510,296.362 46.634,297.777 47.791 M299.600 48.955 C 299.600 49.040,300.815 50.094,302.300 51.297 C 305.596 53.966,309.481 57.760,312.340 61.100 C 313.516 62.475,314.643 63.600,314.843 63.600 C 315.229 63.600,314.184 62.309,311.103 58.979 C 310.059 57.851,309.294 56.809,309.403 56.664 C 309.511 56.519,309.477 56.493,309.328 56.606 C 308.954 56.888,306.800 54.775,306.800 54.125 C 306.800 53.836,306.665 53.644,306.500 53.699 C 306.139 53.817,303.496 51.865,301.761 50.200 C 300.647 49.131,299.600 48.527,299.600 48.955 M194.000 50.239 C 186.513 51.618,181.344 53.980,177.693 57.689 L 175.186 60.236 178.493 60.338 C 183.046 60.479,192.150 61.447,199.800 62.604 C 203.320 63.136,209.530 63.853,213.600 64.198 C 220.222 64.758,227.035 65.664,228.864 66.227 C 229.230 66.339,230.012 67.064,230.602 67.838 C 237.248 76.552,249.541 83.860,258.039 84.150 C 260.108 84.220,262.160 84.398,262.600 84.545 C 263.040 84.692,262.860 84.547,262.200 84.224 C 261.454 83.858,259.761 83.629,257.721 83.618 C 249.011 83.570,244.120 80.587,230.800 67.195 C 218.235 54.563,216.506 53.314,208.836 51.329 C 205.110 50.364,196.681 49.746,194.000 50.239 M90.200 53.020 C 85.843 56.259,76.400 65.289,76.400 66.217 C 76.400 66.475,78.510 64.346,80.610 61.969 C 81.275 61.216,83.403 59.250,85.338 57.600 C 91.038 52.741,91.410 52.412,91.200 52.419 C 91.090 52.423,90.640 52.693,90.200 53.020 M173.600 62.600 C 172.919 63.590,172.452 64.400,172.562 64.400 C 172.672 64.400,173.319 63.590,174.000 62.600 C 174.681 61.610,175.148 60.800,175.038 60.800 C 174.928 60.800,174.281 61.610,173.600 62.600 M317.460 67.654 C 320.972 72.525,323.996 77.502,327.273 83.800 C 328.761 86.660,329.983 88.877,329.989 88.726 C 330.008 88.248,327.882 83.425,327.376 82.800 C 327.110 82.470,326.425 81.269,325.855 80.131 C 325.284 78.993,324.362 77.390,323.805 76.569 C 323.247 75.747,322.872 74.994,322.972 74.895 C 323.071 74.796,322.985 74.509,322.782 74.257 C 320.805 71.814,320.308 71.078,319.782 69.818 C 319.448 69.019,318.915 68.266,318.598 68.144 C 318.280 68.022,317.478 67.040,316.814 65.961 C 316.150 64.883,315.432 64.000,315.217 64.000 C 315.002 64.000,316.012 65.644,317.460 67.654 M171.446 65.800 C 169.790 68.363,169.446 69.011,170.067 68.400 C 170.771 67.707,172.557 64.800,172.279 64.800 C 172.176 64.800,171.801 65.250,171.446 65.800 M74.472 68.203 C 73.992 68.755,73.600 69.340,73.600 69.504 C 73.600 69.668,73.060 70.312,72.400 70.935 C 71.363 71.914,70.864 72.800,71.349 72.800 C 71.431 72.800,72.509 71.540,73.745 70.000 C 75.838 67.391,76.413 65.971,74.472 68.203 M168.187 70.700 C 167.578 71.525,166.342 73.010,165.440 74.000 L 163.800 75.799 165.537 74.200 C 167.097 72.763,169.897 69.200,169.467 69.200 C 169.372 69.200,168.797 69.875,168.187 70.700 M70.105 74.166 C 69.643 74.697,69.041 75.552,68.767 76.066 C 67.964 77.572,69.371 76.254,70.366 74.568 C 71.319 72.953,71.251 72.847,70.105 74.166 M162.200 76.650 C 161.481 77.262,161.334 77.505,161.833 77.257 C 162.566 76.893,163.941 75.576,163.549 75.614 C 163.467 75.622,162.860 76.088,162.200 76.650 M117.000 76.247 C 115.181 76.712,112.357 77.691,112.480 77.813 C 112.552 77.886,113.865 77.597,115.397 77.172 C 118.766 76.238,123.156 76.175,127.465 77.000 C 131.327 77.739,132.037 77.716,129.400 76.938 C 127.411 76.351,118.527 75.856,117.000 76.247 M67.711 77.700 C 67.239 78.310,66.758 79.600,67.002 79.600 C 67.100 79.600,67.459 79.060,67.800 78.400 C 68.439 77.165,68.394 76.817,67.711 77.700 M159.000 78.486 C 158.120 78.953,156.410 79.672,155.200 80.082 C 153.671 80.600,153.427 80.760,154.400 80.604 C 155.838 80.375,160.800 78.217,160.800 77.821 C 160.800 77.525,160.825 77.516,159.000 78.486 M108.700 79.624 C 107.215 80.515,106.000 81.339,106.000 81.455 C 106.000 81.571,106.585 81.305,107.300 80.864 C 108.015 80.423,109.410 79.601,110.400 79.036 C 111.390 78.472,112.020 78.008,111.800 78.007 C 111.580 78.006,110.185 78.733,108.700 79.624 M137.600 79.576 C 137.930 79.769,138.920 80.036,139.800 80.169 L 141.400 80.410 139.600 79.811 C 137.601 79.146,136.681 79.037,137.600 79.576 M65.836 80.342 C 65.470 80.935,64.813 82.800,64.970 82.800 C 65.053 82.800,65.493 82.170,65.947 81.400 C 66.627 80.248,66.520 79.235,65.836 80.342 M142.600 80.780 C 143.834 81.115,146.664 81.318,146.367 81.050 C 146.275 80.968,145.120 80.800,143.800 80.677 C 142.222 80.530,141.811 80.565,142.600 80.780 M150.900 81.076 C 151.285 81.176,151.915 81.176,152.300 81.076 C 152.685 80.975,152.370 80.893,151.600 80.893 C 150.830 80.893,150.515 80.975,150.900 81.076 M102.690 84.006 C 101.246 85.329,99.308 87.354,98.384 88.506 C 96.781 90.502,96.805 90.488,98.907 88.200 C 100.119 86.880,102.166 84.855,103.456 83.701 C 104.745 82.546,105.691 81.601,105.558 81.601 C 105.425 81.600,104.134 82.683,102.690 84.006 M62.661 86.082 C 61.818 88.227,61.984 88.344,63.105 86.396 C 63.596 85.543,63.843 84.750,63.655 84.634 C 63.467 84.518,63.019 85.169,62.661 86.082 M265.477 86.569 C 267.658 88.514,269.506 91.378,270.531 94.400 C 272.896 101.374,273.631 102.873,277.150 107.903 C 280.017 112.002,286.443 123.480,289.150 129.341 C 290.029 131.243,290.845 132.800,290.964 132.800 C 291.257 132.800,288.707 127.242,286.835 123.800 C 285.997 122.260,284.452 119.380,283.401 117.400 C 280.837 112.569,280.211 111.538,277.569 107.800 C 274.833 103.927,273.289 100.926,271.667 96.329 C 269.560 90.354,267.060 86.570,264.297 85.171 C 263.804 84.921,264.335 85.550,265.477 86.569 M330.000 89.376 C 330.000 89.472,330.632 90.777,331.405 92.276 C 332.938 95.248,333.059 94.654,331.604 91.300 C 330.862 89.588,330.000 88.554,330.000 89.376 M59.457 92.250 C 58.514 94.226,58.807 94.304,59.918 92.373 C 60.416 91.508,60.672 90.800,60.486 90.800 C 60.300 90.800,59.837 91.452,59.457 92.250 M95.200 93.200 C 94.751 94.080,94.474 94.800,94.584 94.800 C 94.694 94.800,95.151 94.080,95.600 93.200 C 96.049 92.320,96.326 91.600,96.216 91.600 C 96.106 91.600,95.649 92.320,95.200 93.200 M57.991 95.318 C 57.225 96.484,56.351 98.484,56.529 98.663 C 56.607 98.740,57.168 97.891,57.775 96.775 C 58.898 94.712,59.046 93.711,57.991 95.318 M332.817 95.500 C 332.826 95.665,333.459 97.060,334.223 98.600 C 335.662 101.497,335.700 100.773,334.277 97.600 C 333.832 96.610,333.499 95.665,333.535 95.500 C 333.571 95.335,333.420 95.200,333.200 95.200 C 332.980 95.200,332.807 95.335,332.817 95.500 M91.789 102.189 C 91.416 103.869,91.189 105.322,91.285 105.419 C 91.382 105.515,91.760 104.214,92.126 102.526 C 92.492 100.839,92.719 99.386,92.630 99.297 C 92.542 99.208,92.163 100.510,91.789 102.189 M336.009 102.873 C 336.004 103.023,336.535 104.463,337.189 106.073 C 338.411 109.083,338.845 109.362,337.831 106.486 C 337.517 105.599,337.325 104.808,337.403 104.730 C 337.481 104.652,337.202 104.141,336.782 103.594 C 336.361 103.047,336.014 102.723,336.009 102.873 M53.639 104.460 C 53.045 106.165,53.086 106.746,53.734 105.789 C 54.530 104.611,54.808 103.652,54.421 103.413 C 54.233 103.297,53.880 103.768,53.639 104.460 M90.931 109.000 C 90.933 110.540,91.005 111.121,91.092 110.291 C 91.179 109.461,91.177 108.201,91.089 107.491 C 91.000 106.781,90.929 107.460,90.931 109.000 M51.063 111.283 C 50.846 112.109,51.014 112.740,51.350 112.367 C 51.758 111.915,52.007 110.400,51.674 110.400 C 51.464 110.400,51.189 110.797,51.063 111.283 M339.030 111.400 C 339.396 112.997,340.907 116.158,340.656 114.800 C 340.262 112.673,340.024 111.970,339.401 111.101 C 338.759 110.205,338.757 110.207,339.030 111.400 M91.248 112.800 C 91.230 113.130,91.476 114.840,91.794 116.600 C 92.545 120.758,92.541 123.781,91.777 128.145 C 91.045 132.332,91.258 133.245,92.051 129.318 C 92.764 125.788,92.682 118.124,91.895 114.800 C 91.557 113.370,91.266 112.470,91.248 112.800 M178.600 113.635 C 174.874 114.018,170.292 114.825,170.525 115.059 C 170.614 115.147,172.467 114.926,174.643 114.567 C 176.819 114.208,182.200 113.782,186.600 113.622 L 194.600 113.330 188.200 113.318 C 184.680 113.312,180.360 113.454,178.600 113.635 M198.400 114.188 C 202.753 114.838,203.494 114.879,201.800 114.373 C 201.140 114.177,199.250 113.927,197.600 113.818 L 194.600 113.621 198.400 114.188 M164.600 116.211 C 164.380 116.293,163.152 116.655,161.870 117.017 C 160.589 117.378,159.606 117.740,159.686 117.820 C 159.767 117.900,161.355 117.536,163.216 117.011 C 165.077 116.486,166.240 116.058,165.800 116.060 C 165.360 116.062,164.820 116.130,164.600 116.211 M208.433 116.155 C 208.744 116.443,214.905 118.028,215.071 117.862 C 215.162 117.771,213.821 117.315,212.091 116.849 C 209.010 116.017,208.099 115.845,208.433 116.155 M153.683 119.869 C 152.298 120.435,151.233 120.966,151.315 121.049 C 151.459 121.192,156.422 119.291,156.767 118.960 C 157.168 118.575,156.018 118.914,153.683 119.869 M221.162 120.228 C 222.351 120.768,223.392 121.142,223.474 121.059 C 223.648 120.885,219.814 119.189,219.326 119.223 C 219.147 119.236,219.973 119.688,221.162 120.228 M48.000 120.567 C 48.000 120.879,47.884 121.464,47.741 121.867 C 47.565 122.367,47.614 122.473,47.896 122.200 C 48.536 121.582,48.918 120.000,48.427 120.000 C 48.192 120.000,48.000 120.255,48.000 120.567 M342.000 121.104 C 342.000 121.815,343.260 125.673,343.436 125.498 C 343.719 125.214,342.778 121.234,342.368 120.980 C 342.165 120.855,342.000 120.911,342.000 121.104 M144.800 124.035 C 142.270 125.367,139.930 126.749,139.600 127.106 C 139.066 127.685,139.067 127.707,139.608 127.306 C 139.942 127.058,142.462 125.676,145.208 124.235 C 147.954 122.794,150.020 121.614,149.800 121.614 C 149.580 121.614,147.330 122.703,144.800 124.035 M226.833 122.551 C 227.242 122.921,230.400 124.395,230.400 124.216 C 230.400 123.989,227.381 122.400,226.949 122.400 C 226.794 122.400,226.742 122.468,226.833 122.551 M230.833 124.535 C 231.418 125.007,235.600 127.222,235.600 127.059 C 235.600 126.809,231.418 124.400,230.985 124.400 C 230.810 124.400,230.742 124.461,230.833 124.535 M236.551 127.692 C 236.965 127.971,239.032 129.440,241.146 130.955 C 243.259 132.470,244.743 133.414,244.443 133.052 C 243.787 132.261,238.205 128.321,236.800 127.656 C 235.962 127.260,235.922 127.266,236.551 127.692 M134.883 130.205 C 132.880 131.638,131.129 132.991,130.993 133.211 C 130.796 133.529,138.127 128.392,138.767 127.764 C 139.514 127.029,137.932 128.024,134.883 130.205 M94.275 129.479 C 93.971 129.970,94.685 132.248,95.034 131.899 C 95.150 131.783,95.090 131.089,94.901 130.356 C 94.701 129.587,94.437 129.217,94.275 129.479 M198.548 130.160 C 171.923 138.785,179.847 184.721,209.600 194.229 C 213.954 195.620,223.589 196.041,228.200 195.041 C 229.740 194.707,230.370 194.517,229.600 194.619 C 211.828 196.972,198.529 191.635,190.204 178.808 C 174.311 154.322,185.552 125.793,209.427 130.020 C 227.251 133.176,246.933 148.359,253.193 163.783 C 253.694 165.018,254.199 165.934,254.315 165.818 C 254.879 165.254,250.914 157.985,247.758 153.800 C 235.284 137.258,211.664 125.911,198.548 130.160 M344.441 129.858 C 344.365 130.712,346.017 135.391,347.034 137.200 C 347.591 138.190,347.919 138.640,347.763 138.200 C 347.607 137.760,347.102 136.320,346.640 135.000 C 346.178 133.680,345.699 132.510,345.575 132.400 C 345.452 132.290,345.155 131.570,344.916 130.800 C 344.677 130.030,344.463 129.606,344.441 129.858 M45.262 131.500 C 45.023 132.105,44.716 133.140,44.579 133.800 L 44.331 135.000 44.928 133.927 C 45.549 132.811,46.200 130.400,45.880 130.400 C 45.780 130.400,45.501 130.895,45.262 131.500 M291.233 133.296 C 291.183 133.750,293.693 139.240,293.870 139.063 C 293.955 138.978,293.404 137.579,292.645 135.954 C 291.887 134.329,291.251 133.133,291.233 133.296 M127.532 135.952 C 123.565 139.583,122.133 140.994,120.171 143.200 C 119.096 144.410,120.732 142.979,123.808 140.020 C 126.883 137.062,129.571 134.497,129.780 134.320 C 129.989 134.144,130.049 134.000,129.912 134.000 C 129.776 134.000,128.705 134.878,127.532 135.952 M246.488 135.019 C 247.086 135.645,247.682 136.052,247.811 135.922 C 247.940 135.793,247.451 135.281,246.723 134.784 L 245.400 133.880 246.488 135.019 M89.316 137.324 C 87.877 141.446,87.869 141.478,88.356 140.800 C 88.887 140.062,90.540 135.207,90.332 134.998 C 90.249 134.915,89.792 135.962,89.316 137.324 M251.000 139.200 C 252.306 140.520,253.465 141.600,253.575 141.600 C 253.685 141.600,252.706 140.520,251.400 139.200 C 250.094 137.880,248.935 136.800,248.825 136.800 C 248.715 136.800,249.694 137.880,251.000 139.200 M348.347 139.800 C 348.976 141.076,349.973 142.244,349.987 141.722 C 349.994 141.460,349.539 140.740,348.976 140.122 C 348.301 139.383,348.086 139.273,348.347 139.800 M42.102 140.500 C 41.341 141.461,40.701 142.909,41.163 142.623 C 41.406 142.472,41.879 141.821,42.213 141.175 C 42.843 139.956,42.790 139.632,42.102 140.500 M294.400 140.522 C 294.400 140.994,296.354 145.200,296.573 145.200 C 296.692 145.200,296.336 144.174,295.782 142.920 C 294.798 140.695,294.400 140.005,294.400 140.522 M255.141 143.900 C 256.094 145.055,256.963 146.000,257.071 146.000 C 257.365 146.000,254.937 143.007,254.119 142.362 C 253.727 142.053,254.187 142.745,255.141 143.900 M85.850 145.250 C 85.230 146.353,84.801 147.334,84.897 147.430 C 84.992 147.526,85.568 146.691,86.175 145.575 C 86.782 144.459,87.211 143.478,87.128 143.395 C 87.045 143.312,86.470 144.147,85.850 145.250 M350.999 144.000 C 351.680 145.117,354.094 148.198,354.483 148.445 C 354.695 148.579,354.845 148.811,354.816 148.959 C 354.788 149.107,355.220 149.807,355.778 150.514 C 356.335 151.221,356.793 151.673,356.796 151.518 C 356.801 151.167,355.385 149.078,353.800 147.098 C 353.140 146.274,352.600 145.397,352.600 145.149 C 352.600 144.901,352.158 144.406,351.617 144.049 C 350.802 143.511,350.696 143.502,350.999 144.000 M39.068 144.989 C 38.744 145.314,38.060 146.259,37.548 147.089 C 37.037 147.920,36.189 149.085,35.664 149.677 C 35.139 150.269,34.459 151.259,34.154 151.877 L 33.599 153.000 34.386 152.000 C 34.820 151.450,35.675 150.321,36.287 149.490 C 36.899 148.660,37.985 147.248,38.700 146.353 C 39.415 145.457,40.000 144.651,40.000 144.562 C 40.000 144.247,39.650 144.407,39.068 144.989 M117.155 146.700 C 115.810 148.187,115.060 149.200,115.303 149.200 C 115.413 149.200,116.167 148.390,116.979 147.400 C 118.606 145.414,118.717 144.972,117.155 146.700 M258.654 148.400 C 260.462 151.074,261.185 151.877,260.157 150.070 C 259.741 149.338,258.897 148.168,258.283 147.470 C 257.476 146.552,257.579 146.810,258.654 148.400 M298.461 148.823 C 298.962 149.715,299.628 150.658,299.940 150.917 C 300.253 151.176,299.928 150.445,299.220 149.294 C 297.701 146.826,297.144 146.480,298.461 148.823 M83.959 148.900 C 83.701 149.395,83.035 150.610,82.479 151.600 C 81.923 152.590,81.658 153.220,81.890 153.000 C 82.472 152.448,84.929 148.000,84.652 148.000 C 84.529 148.000,84.217 148.405,83.959 148.900 M114.151 150.500 C 112.970 151.848,112.280 152.800,112.484 152.800 C 112.584 152.800,113.245 152.080,113.952 151.200 C 115.325 149.492,115.464 149.001,114.151 150.500 M261.639 152.976 C 262.101 153.759,262.556 154.400,262.650 154.400 C 262.934 154.400,261.636 152.069,261.202 151.801 C 260.980 151.664,261.177 152.193,261.639 152.976 M301.184 152.723 C 301.681 153.451,302.193 153.940,302.322 153.811 C 302.452 153.682,302.045 153.086,301.419 152.488 L 300.280 151.400 301.184 152.723 M358.247 154.400 C 359.486 156.272,359.769 156.435,359.113 154.900 C 358.512 153.493,357.995 152.800,357.545 152.800 C 357.349 152.800,357.665 153.520,358.247 154.400 M32.240 154.440 C 31.690 155.542,31.689 155.624,32.232 155.173 C 33.078 154.471,33.729 153.200,33.243 153.200 C 33.032 153.200,32.580 153.758,32.240 154.440 M111.544 153.900 C 110.275 155.432,109.819 156.142,110.281 155.865 C 110.793 155.558,112.569 153.200,112.289 153.200 C 112.198 153.200,111.863 153.515,111.544 153.900 M80.553 154.900 C 79.176 157.236,79.086 157.435,79.787 156.600 C 80.600 155.632,81.300 154.400,81.038 154.400 C 80.933 154.400,80.715 154.625,80.553 154.900 M303.567 154.945 C 304.100 155.601,305.600 156.593,305.600 156.289 C 305.600 156.213,305.015 155.722,304.300 155.199 C 303.496 154.610,303.216 154.513,303.567 154.945 M264.270 157.573 C 265.104 159.099,265.855 160.278,265.939 160.194 C 266.125 160.009,263.245 154.800,262.957 154.800 C 262.845 154.800,263.436 156.048,264.270 157.573 M308.437 157.754 C 309.731 158.509,314.873 160.460,315.064 160.269 C 315.142 160.191,313.720 159.541,311.903 158.824 C 307.754 157.186,307.137 156.996,308.437 157.754 M29.533 158.500 C 28.782 159.866,28.728 160.762,29.455 159.800 C 30.502 158.413,30.862 157.600,30.428 157.600 C 30.208 157.600,29.805 158.005,29.533 158.500 M108.012 158.588 C 107.501 159.131,106.956 159.496,106.800 159.400 C 106.449 159.183,105.317 160.374,103.326 163.055 C 102.487 164.186,100.794 166.346,99.564 167.855 C 94.457 174.122,89.170 182.748,83.986 193.273 C 80.446 200.459,79.824 201.930,74.212 216.400 C 70.739 225.355,65.532 237.265,65.224 236.960 C 65.101 236.838,64.782 235.897,64.517 234.869 C 64.127 233.363,64.071 233.286,64.230 234.474 C 65.031 240.481,65.169 245.193,64.752 252.350 C 64.135 262.952,64.386 267.888,65.703 271.078 C 66.894 273.962,68.706 276.505,69.306 276.134 C 69.538 275.991,69.605 276.068,69.457 276.308 C 68.788 277.390,73.411 279.616,80.371 281.564 C 92.898 285.070,99.739 289.796,110.955 302.691 C 112.911 304.939,114.694 306.666,114.917 306.528 C 115.142 306.388,115.202 306.473,115.051 306.717 C 114.654 307.360,120.303 312.031,123.278 313.520 C 128.623 316.196,134.093 316.794,140.200 315.371 C 146.438 313.917,155.612 315.747,164.390 320.195 C 165.540 320.778,166.381 321.093,166.260 320.897 C 166.138 320.700,165.302 320.207,164.401 319.800 L 162.763 319.062 164.682 317.870 C 167.635 316.036,172.177 312.480,176.800 308.384 C 181.825 303.932,184.357 301.921,190.237 297.714 C 197.330 292.641,206.750 285.188,206.984 284.465 C 207.119 284.049,208.342 283.454,210.243 282.877 C 211.917 282.369,213.207 281.874,213.109 281.776 C 213.011 281.678,211.867 281.964,210.566 282.412 C 183.686 291.660,144.957 280.696,121.600 257.226 C 98.515 234.030,89.946 197.036,101.674 171.200 C 102.323 169.770,102.880 168.285,102.912 167.900 C 102.944 167.515,103.131 167.200,103.328 167.200 C 103.525 167.200,103.578 166.921,103.447 166.579 C 103.292 166.174,103.370 166.058,103.673 166.245 C 103.985 166.438,104.050 166.307,103.873 165.845 C 103.728 165.467,103.752 165.247,103.926 165.354 C 104.100 165.462,104.848 164.436,105.587 163.075 C 106.327 161.714,107.457 159.925,108.099 159.100 C 109.431 157.390,109.386 157.125,108.012 158.588 M361.000 159.200 C 361.341 159.860,361.788 160.400,361.992 160.400 C 362.196 160.400,362.056 159.861,361.681 159.203 C 360.792 157.640,360.192 157.638,361.000 159.200 M76.588 160.900 C 75.721 162.055,73.479 164.522,71.606 166.383 C 69.638 168.337,68.938 169.193,69.948 168.411 C 72.365 166.538,79.087 158.800,78.296 158.800 C 78.224 158.800,77.455 159.745,76.588 160.900 M316.453 160.987 C 316.819 161.353,321.200 163.186,321.200 162.973 C 321.200 162.854,320.205 162.316,318.989 161.778 C 316.870 160.841,316.052 160.586,316.453 160.987 M266.800 162.549 C 266.800 162.630,267.253 163.665,267.806 164.849 C 268.822 167.021,268.779 166.204,267.747 163.735 C 267.275 162.604,266.800 162.010,266.800 162.549 M26.769 163.700 C 26.753 163.755,26.680 164.070,26.608 164.400 C 26.536 164.730,26.348 165.360,26.189 165.800 L 25.902 166.600 26.484 165.800 C 27.302 164.678,27.646 163.600,27.187 163.600 C 26.974 163.600,26.786 163.645,26.769 163.700 M322.400 163.735 C 322.400 163.835,323.303 164.496,324.407 165.204 C 325.510 165.913,327.523 167.686,328.878 169.146 C 330.234 170.606,330.969 171.260,330.511 170.600 C 328.789 168.116,322.400 162.709,322.400 163.735 M363.429 164.800 C 363.578 165.350,363.959 166.250,364.275 166.800 C 364.592 167.350,364.749 167.470,364.625 167.067 C 364.501 166.664,364.400 166.114,364.400 165.844 C 364.400 165.574,364.121 165.004,363.779 164.576 C 363.183 163.830,363.169 163.839,363.429 164.800 M254.596 167.400 C 256.656 175.401,255.830 178.342,249.876 184.198 C 245.672 188.334,241.940 190.713,236.622 192.644 C 232.624 194.097,232.523 194.504,236.498 193.144 C 243.524 190.741,249.497 186.425,254.236 180.330 L 256.000 178.061 255.994 174.730 C 255.988 171.534,255.229 167.071,254.592 166.482 C 254.424 166.327,254.426 166.740,254.596 167.400 M66.000 171.254 L 64.200 172.885 65.894 171.613 C 67.368 170.507,68.314 169.574,67.924 169.612 C 67.856 169.619,66.990 170.358,66.000 171.254 M270.279 171.400 C 270.414 172.060,270.766 173.230,271.061 174.000 L 271.598 175.400 271.352 174.000 C 271.217 173.230,270.864 172.060,270.570 171.400 L 270.033 170.200 270.279 171.400 M24.021 172.700 C 23.503 174.564,23.484 175.085,23.951 174.580 C 24.347 174.152,24.946 171.200,24.637 171.200 C 24.527 171.200,24.250 171.875,24.021 172.700 M332.039 173.376 C 332.501 174.159,332.956 174.800,333.050 174.800 C 333.334 174.800,332.036 172.469,331.602 172.201 C 331.380 172.064,331.577 172.593,332.039 173.376 M62.575 174.100 L 61.400 175.400 62.700 174.225 C 63.912 173.130,64.184 172.800,63.875 172.800 C 63.806 172.800,63.221 173.385,62.575 174.100 M366.093 174.400 C 366.093 175.170,366.175 175.485,366.276 175.100 C 366.376 174.715,366.376 174.085,366.276 173.700 C 366.175 173.315,366.093 173.630,366.093 174.400 M334.715 178.386 C 335.511 180.138,336.239 181.495,336.333 181.401 C 336.527 181.206,333.738 175.200,333.454 175.200 C 333.351 175.200,333.919 176.634,334.715 178.386 M59.079 177.700 C 57.994 179.168,57.262 180.432,57.863 179.800 C 58.605 179.020,60.438 176.400,60.241 176.400 C 60.131 176.400,59.608 176.985,59.079 177.700 M366.545 178.900 C 366.912 182.158,366.959 189.597,366.624 191.653 C 366.423 192.892,366.472 193.597,366.772 193.782 C 367.018 193.935,367.182 193.911,367.136 193.730 C 367.090 193.548,367.199 192.050,367.378 190.400 C 367.702 187.423,367.726 182.319,367.424 180.400 C 367.337 179.850,367.252 178.815,367.233 178.100 C 367.215 177.385,366.999 176.800,366.754 176.800 C 366.452 176.800,366.385 177.480,366.545 178.900 M272.844 180.244 C 272.820 180.489,273.152 182.469,273.583 184.644 C 274.013 186.820,274.453 189.050,274.559 189.600 C 274.666 190.150,274.669 189.520,274.566 188.200 C 274.392 185.962,272.941 179.262,272.844 180.244 M55.932 183.020 C 55.258 184.461,54.775 185.708,54.859 185.792 C 54.943 185.876,55.580 184.698,56.274 183.173 C 56.968 181.648,57.451 180.400,57.347 180.400 C 57.243 180.400,56.606 181.579,55.932 183.020 M22.537 187.400 C 22.539 189.160,22.609 189.830,22.693 188.889 C 22.778 187.949,22.777 186.509,22.691 185.689 C 22.605 184.870,22.536 185.640,22.537 187.400 M337.812 187.400 C 338.431 192.066,338.439 196.045,337.839 199.967 C 337.104 204.771,337.258 205.864,338.059 201.526 C 338.696 198.082,338.685 188.736,338.043 187.000 C 337.616 185.844,337.607 185.858,337.812 187.400 M53.293 192.400 C 53.293 193.170,53.375 193.485,53.476 193.100 C 53.576 192.715,53.576 192.085,53.476 191.700 C 53.375 191.315,53.293 191.630,53.293 192.400 M274.928 193.600 C 274.928 195.030,275.001 195.615,275.089 194.900 C 275.178 194.185,275.178 193.015,275.089 192.300 C 275.001 191.585,274.928 192.170,274.928 193.600 M52.909 196.000 C 52.909 196.990,52.987 197.395,53.082 196.900 C 53.178 196.405,53.178 195.595,53.082 195.100 C 52.987 194.605,52.909 195.010,52.909 196.000 M53.301 199.800 C 53.305 200.680,53.387 200.993,53.483 200.495 C 53.579 199.998,53.575 199.278,53.475 198.895 C 53.375 198.513,53.296 198.920,53.301 199.800 M23.763 200.183 C 23.861 200.723,24.146 201.488,24.398 201.883 C 24.796 202.507,24.826 202.470,24.633 201.600 C 24.511 201.050,24.408 200.285,24.405 199.900 C 24.402 199.515,24.216 199.200,23.992 199.200 C 23.768 199.200,23.665 199.642,23.763 200.183 M274.931 205.000 C 274.933 206.540,275.005 207.121,275.092 206.291 C 275.179 205.461,275.177 204.201,275.089 203.491 C 275.000 202.781,274.929 203.460,274.931 205.000 M364.081 203.887 C 363.331 205.841,363.137 206.800,363.490 206.800 C 363.850 206.800,364.943 203.210,364.667 202.933 C 364.579 202.846,364.316 203.275,364.081 203.887 M55.429 208.400 C 55.576 208.950,55.864 209.670,56.067 210.000 C 56.325 210.417,56.357 210.295,56.171 209.600 C 56.024 209.050,55.736 208.330,55.533 208.000 C 55.275 207.583,55.243 207.705,55.429 208.400 M333.923 212.361 C 332.671 214.913,331.926 216.640,332.267 216.200 C 333.064 215.173,336.568 208.025,336.358 207.853 C 336.271 207.781,335.175 209.810,333.923 212.361 M274.446 209.001 C 274.421 209.661,274.042 212.079,273.605 214.373 C 272.801 218.593,272.747 220.267,273.516 217.115 C 274.238 214.157,274.895 209.378,274.690 208.572 C 274.557 208.051,274.478 208.190,274.446 209.001 M26.540 210.000 C 26.677 210.550,26.792 211.135,26.795 211.300 C 26.798 211.465,26.992 211.600,27.227 211.600 C 27.715 211.600,27.338 210.023,26.701 209.400 C 26.423 209.128,26.371 209.321,26.540 210.000 M361.005 212.526 C 360.295 214.225,360.274 214.400,360.781 214.400 C 361.189 214.400,362.103 211.569,361.794 211.261 C 361.693 211.160,361.338 211.729,361.005 212.526 M57.750 214.000 C 58.101 215.299,59.309 218.024,59.465 217.868 C 59.556 217.778,59.170 216.735,58.609 215.552 C 58.047 214.368,57.661 213.670,57.750 214.000 M29.711 219.571 C 29.967 220.247,30.299 220.800,30.450 220.800 C 30.880 220.800,30.374 219.276,29.780 218.784 C 29.340 218.418,29.328 218.555,29.711 219.571 M328.575 221.068 C 327.959 221.876,327.659 222.411,327.909 222.256 C 328.421 221.940,330.153 219.600,329.875 219.600 C 329.776 219.600,329.191 220.261,328.575 221.068 M357.823 221.259 C 357.403 222.308,357.299 223.059,357.539 223.299 C 357.852 223.612,358.351 222.419,358.584 220.800 C 358.599 220.690,358.755 220.375,358.930 220.100 C 359.104 219.825,359.076 219.600,358.867 219.600 C 358.658 219.600,358.188 220.347,357.823 221.259 M61.061 222.400 C 61.517 224.202,62.452 226.403,62.184 225.044 C 62.059 224.408,61.698 223.328,61.382 222.644 C 60.951 221.708,60.871 221.648,61.061 222.400 M324.217 226.500 C 322.497 228.564,322.048 229.227,323.201 228.000 C 325.494 225.559,327.767 222.800,327.484 222.800 C 327.383 222.800,325.913 224.465,324.217 226.500 M356.240 225.840 C 355.853 227.067,355.609 228.142,355.697 228.230 C 355.785 228.318,356.173 227.387,356.560 226.160 C 356.947 224.933,357.191 223.858,357.103 223.770 C 357.015 223.682,356.627 224.613,356.240 225.840 M270.439 226.469 C 269.497 229.261,269.580 230.180,270.536 227.524 C 271.382 225.172,271.690 224.000,271.464 224.000 C 271.359 224.000,270.898 225.111,270.439 226.469 M32.540 228.000 C 32.677 228.550,32.792 229.135,32.795 229.300 C 32.798 229.465,32.992 229.600,33.227 229.600 C 33.715 229.600,33.338 228.023,32.701 227.400 C 32.423 227.128,32.371 227.321,32.540 228.000 M354.556 230.243 C 354.224 231.037,354.039 231.772,354.144 231.877 C 354.382 232.116,355.320 230.444,355.478 229.500 C 355.674 228.329,355.194 228.716,354.556 230.243 M319.578 231.900 L 318.200 233.400 319.700 232.022 C 321.096 230.738,321.384 230.400,321.078 230.400 C 321.012 230.400,320.337 231.075,319.578 231.900 M267.496 233.999 C 266.926 235.320,266.546 236.400,266.652 236.400 C 266.919 236.400,268.869 231.935,268.683 231.749 C 268.600 231.666,268.066 232.679,267.496 233.999 M316.778 235.100 L 315.400 236.600 316.900 235.222 C 318.296 233.938,318.584 233.600,318.278 233.600 C 318.212 233.600,317.537 234.275,316.778 235.100 M351.951 237.100 C 351.715 237.705,351.495 238.605,351.461 239.100 C 351.427 239.595,351.265 240.000,351.100 240.000 C 350.935 240.000,350.800 240.219,350.800 240.486 C 350.800 241.328,351.958 239.888,352.158 238.798 C 352.258 238.249,352.376 237.755,352.420 237.700 C 352.464 237.645,352.525 237.465,352.556 237.300 C 352.587 237.135,352.755 236.775,352.930 236.500 C 353.112 236.212,353.063 236.000,352.814 236.000 C 352.575 236.000,352.187 236.495,351.951 237.100 M35.382 237.282 C 35.741 239.012,36.480 240.642,36.672 240.127 C 36.769 239.867,36.468 238.877,36.003 237.927 C 35.417 236.730,35.226 236.532,35.382 237.282 M264.883 239.413 C 264.182 240.836,263.693 242.000,263.798 242.000 C 264.066 242.000,266.485 237.151,266.306 236.972 C 266.225 236.892,265.585 237.990,264.883 239.413 M313.275 238.900 C 310.854 241.522,309.098 243.600,309.302 243.600 C 309.403 243.600,310.786 242.160,312.375 240.400 C 313.965 238.640,315.170 237.200,315.054 237.200 C 314.939 237.200,314.138 237.965,313.275 238.900 M260.546 246.702 C 257.017 252.016,251.038 259.016,247.139 262.398 C 243.086 265.914,242.242 266.766,244.000 265.567 C 248.867 262.247,258.588 251.076,262.679 244.100 C 264.417 241.136,263.497 242.259,260.546 246.702 M348.829 245.815 C 347.843 248.449,347.821 248.636,348.584 247.873 C 348.905 247.552,349.254 246.817,349.358 246.241 C 349.463 245.665,349.662 244.835,349.801 244.397 C 350.358 242.643,349.604 243.742,348.829 245.815 M307.963 245.100 C 306.250 247.011,305.469 248.000,305.675 248.000 C 305.785 248.000,306.634 247.100,307.561 246.000 C 309.345 243.885,309.635 243.236,307.963 245.100 M38.200 246.800 C 38.351 247.350,38.568 248.295,38.683 248.900 C 38.797 249.505,39.054 250.000,39.253 250.000 C 39.700 250.000,39.276 248.209,38.501 246.827 L 37.926 245.800 38.200 246.800 M303.596 250.606 C 301.934 252.855,299.939 256.125,300.670 255.400 C 301.259 254.817,305.586 248.400,305.391 248.400 C 305.300 248.400,304.492 249.393,303.596 250.606 M345.900 253.826 C 345.104 255.426,345.025 256.000,345.600 256.000 C 345.820 256.000,346.000 255.651,346.000 255.224 C 346.000 254.797,346.158 254.349,346.352 254.230 C 346.785 253.962,347.225 252.396,346.863 252.410 C 346.718 252.415,346.285 253.053,345.900 253.826 M298.600 258.400 C 298.259 259.060,298.069 259.600,298.179 259.600 C 298.289 259.600,298.659 259.060,299.000 258.400 C 299.341 257.740,299.531 257.200,299.421 257.200 C 299.311 257.200,298.941 257.740,298.600 258.400 M41.600 258.924 C 41.600 259.534,42.771 261.195,42.782 260.600 C 42.786 260.380,42.681 259.795,42.548 259.300 C 42.289 258.333,41.600 258.060,41.600 258.924 M342.844 262.100 C 342.086 264.124,341.988 264.745,342.384 264.990 C 342.622 265.137,342.800 264.886,342.800 264.404 C 342.800 263.940,343.075 263.029,343.410 262.380 C 343.774 261.676,343.851 261.200,343.600 261.200 C 343.369 261.200,343.029 261.605,342.844 262.100 M295.361 264.650 C 294.814 265.887,294.434 266.967,294.517 267.051 C 294.600 267.134,295.134 266.121,295.704 264.801 C 296.274 263.480,296.654 262.400,296.548 262.400 C 296.442 262.400,295.908 263.412,295.361 264.650 M44.018 266.051 C 43.999 266.750,46.746 274.468,46.776 273.800 C 46.796 273.346,45.559 269.396,44.645 267.000 C 44.310 266.120,44.027 265.693,44.018 266.051 M238.232 269.232 C 234.446 271.875,233.097 272.919,234.400 272.195 C 237.387 270.536,243.327 266.229,242.349 266.431 C 242.267 266.448,240.414 267.708,238.232 269.232 M339.858 270.373 C 339.477 271.323,339.262 272.195,339.378 272.311 C 339.667 272.600,340.878 269.635,340.695 269.086 C 340.615 268.844,340.238 269.423,339.858 270.373 M292.650 271.191 C 291.747 273.447,291.887 273.783,292.837 271.642 C 293.266 270.675,293.545 269.812,293.458 269.725 C 293.371 269.638,293.008 270.298,292.650 271.191 M230.200 274.207 C 228.880 274.968,227.980 275.591,228.200 275.591 C 228.681 275.593,232.800 273.265,232.800 272.992 C 232.800 272.709,232.800 272.709,230.200 274.207 M47.214 275.754 C 47.183 276.537,48.149 279.200,48.463 279.200 C 48.648 279.200,48.794 279.065,48.786 278.900 C 48.765 278.430,47.229 275.357,47.214 275.754 M225.600 276.600 C 224.610 277.130,223.942 277.572,224.116 277.582 C 224.541 277.606,227.600 276.034,227.600 275.792 C 227.600 275.527,227.617 275.520,225.600 276.600 M289.432 279.432 C 288.845 280.898,288.432 282.165,288.515 282.248 C 288.598 282.331,289.143 281.196,289.726 279.726 C 290.310 278.256,290.722 276.989,290.643 276.909 C 290.564 276.830,290.019 277.965,289.432 279.432 M336.850 279.050 C 336.373 280.296,336.077 281.410,336.191 281.525 C 336.483 281.817,336.552 281.674,337.307 279.222 C 338.199 276.321,337.933 276.221,336.850 279.050 M218.600 279.629 C 217.720 280.052,217.450 280.286,218.000 280.149 C 219.133 279.867,221.212 278.825,220.600 278.846 C 220.380 278.853,219.480 279.206,218.600 279.629 M50.541 285.100 C 51.151 287.287,51.287 287.600,51.627 287.600 C 52.113 287.600,52.106 287.552,51.395 285.849 C 50.773 284.360,50.193 283.851,50.541 285.100 M286.075 287.419 C 284.870 289.900,285.005 290.247,286.246 287.861 C 286.801 286.794,287.187 285.853,287.103 285.770 C 287.019 285.686,286.557 286.428,286.075 287.419 M333.405 288.526 C 332.707 290.196,332.678 290.400,333.133 290.400 C 333.509 290.400,334.473 287.540,334.192 287.259 C 334.092 287.159,333.738 287.729,333.405 288.526 M283.952 291.700 C 283.690 292.195,283.215 293.050,282.896 293.600 C 282.339 294.559,282.343 294.567,282.988 293.800 C 283.786 292.852,284.905 290.800,284.624 290.800 C 284.516 290.800,284.214 291.205,283.952 291.700 M53.212 292.000 C 53.218 292.663,54.778 294.840,54.788 294.200 C 54.792 293.980,54.437 293.260,54.000 292.600 C 53.563 291.940,53.208 291.670,53.212 292.000 M330.619 295.563 C 330.267 296.243,330.135 296.800,330.326 296.800 C 330.731 296.800,331.717 294.784,331.444 294.511 C 331.342 294.409,330.971 294.882,330.619 295.563 M281.353 296.100 C 279.976 298.436,279.886 298.635,280.587 297.800 C 281.400 296.832,282.100 295.600,281.838 295.600 C 281.733 295.600,281.515 295.825,281.353 296.100 M329.515 297.810 C 329.392 298.245,329.169 298.960,329.020 299.400 C 328.871 299.840,329.042 299.694,329.400 299.076 C 329.758 298.458,329.981 297.742,329.895 297.486 C 329.810 297.230,329.639 297.376,329.515 297.810 M56.400 298.940 C 56.400 299.657,57.378 301.583,57.830 301.756 C 58.261 301.921,58.202 301.580,57.594 300.388 C 56.901 299.031,56.400 298.423,56.400 298.940 M277.408 302.042 C 276.601 303.165,276.132 303.965,276.366 303.821 C 276.852 303.520,279.332 300.000,279.057 300.000 C 278.957 300.000,278.215 300.919,277.408 302.042 M327.700 301.982 C 326.798 303.562,326.506 304.492,327.136 303.780 C 327.904 302.911,329.240 300.400,328.933 300.403 C 328.750 300.405,328.195 301.115,327.700 301.982 M59.764 305.531 C 60.111 306.201,60.590 306.870,60.830 307.019 C 61.070 307.167,60.982 306.740,60.636 306.069 C 60.289 305.399,59.810 304.730,59.570 304.581 C 59.330 304.433,59.418 304.860,59.764 305.531 M274.400 306.000 C 273.703 306.880,273.223 307.600,273.333 307.600 C 273.443 307.600,274.103 306.880,274.800 306.000 C 275.497 305.120,275.977 304.400,275.867 304.400 C 275.757 304.400,275.097 305.120,274.400 306.000 M324.879 307.507 C 324.200 308.548,324.076 309.034,324.408 309.359 C 324.660 309.606,324.808 309.624,324.746 309.400 C 324.685 309.180,324.956 308.398,325.347 307.663 C 326.308 305.858,326.018 305.762,324.879 307.507 M271.200 310.000 C 270.279 311.100,269.616 312.000,269.726 312.000 C 269.836 312.000,270.679 311.100,271.600 310.000 C 272.521 308.900,273.184 308.000,273.074 308.000 C 272.964 308.000,272.121 308.900,271.200 310.000 M62.672 310.583 C 63.035 311.343,63.485 311.871,63.673 311.755 C 63.977 311.567,62.593 309.200,62.179 309.200 C 62.088 309.200,62.310 309.822,62.672 310.583 M321.660 313.227 C 320.144 315.666,320.051 316.130,321.394 314.568 C 322.241 313.581,323.405 311.200,323.039 311.200 C 322.973 311.200,322.353 312.112,321.660 313.227 M262.805 318.800 C 259.398 322.210,257.868 323.888,259.405 322.529 C 262.790 319.537,269.428 312.869,269.179 312.713 C 269.081 312.651,266.212 315.390,262.805 318.800 M65.304 314.449 C 65.585 314.972,66.420 316.030,67.160 316.800 L 68.506 318.200 67.287 316.377 C 65.844 314.220,64.460 312.874,65.304 314.449 M319.340 317.100 C 317.977 318.951,317.490 320.017,318.118 319.776 C 318.571 319.602,320.623 316.000,320.270 316.000 C 320.204 316.000,319.786 316.495,319.340 317.100 M68.400 318.689 C 68.400 319.192,69.543 320.190,69.812 319.921 C 69.918 319.815,69.644 319.402,69.202 319.002 C 68.761 318.603,68.400 318.462,68.400 318.689 M70.738 321.400 C 71.181 322.060,72.051 323.163,72.671 323.852 C 73.292 324.540,75.040 326.478,76.555 328.158 C 79.875 331.838,88.000 339.009,88.000 338.258 C 88.000 338.153,87.055 337.321,85.900 336.409 C 83.276 334.335,76.456 327.687,73.800 324.613 C 72.700 323.339,71.380 321.826,70.867 321.249 L 69.934 320.200 70.738 321.400 M315.001 323.638 C 310.480 329.911,302.827 337.791,297.392 341.768 C 293.603 344.541,292.920 345.156,294.752 344.146 C 297.256 342.765,297.802 342.412,297.440 342.406 C 297.242 342.403,297.825 341.860,298.737 341.200 C 299.648 340.540,300.585 340.000,300.820 340.000 C 301.055 340.000,301.136 339.820,301.000 339.600 C 300.864 339.380,300.898 339.200,301.076 339.200 C 301.506 339.199,310.000 330.887,310.000 330.467 C 310.000 330.287,310.466 329.703,311.036 329.170 C 311.606 328.636,312.724 327.300,313.520 326.200 C 314.316 325.100,315.393 323.791,315.914 323.291 C 316.435 322.791,316.793 322.178,316.710 321.929 C 316.627 321.680,315.858 322.449,315.001 323.638 M169.400 323.230 C 170.280 323.945,174.965 328.505,179.810 333.365 C 187.053 340.629,193.600 346.371,193.600 345.461 C 193.600 345.356,192.431 344.436,191.003 343.417 C 189.575 342.398,184.400 337.550,179.503 332.643 C 174.606 327.737,169.970 323.320,169.200 322.827 C 167.918 322.006,167.934 322.040,169.400 323.230 M254.600 326.032 C 252.227 327.826,251.908 328.332,254.133 326.772 C 255.814 325.594,256.729 324.775,256.324 324.811 C 256.256 324.817,255.480 325.367,254.600 326.032 M250.293 329.014 C 249.472 329.572,248.800 330.123,248.800 330.237 C 248.800 330.534,251.179 329.099,251.680 328.500 C 252.301 327.757,251.954 327.886,250.293 329.014 M245.393 332.256 C 243.352 333.609,242.632 334.323,244.226 333.414 C 245.630 332.614,247.501 331.222,247.193 331.209 C 247.079 331.204,246.269 331.675,245.393 332.256 M240.860 335.203 C 239.947 335.864,239.200 336.505,239.200 336.627 C 239.200 336.750,240.010 336.268,241.000 335.557 C 242.644 334.377,243.045 334.000,242.660 334.000 C 242.583 334.000,241.773 334.541,240.860 335.203 M237.185 338.029 L 235.800 339.258 237.300 338.181 C 238.626 337.230,239.057 336.800,238.685 336.800 C 238.622 336.800,237.947 337.353,237.185 338.029 M89.194 339.589 C 89.453 340.073,89.769 340.365,89.896 340.238 C 90.023 340.111,90.368 340.207,90.663 340.452 C 90.958 340.697,91.200 340.735,91.200 340.535 C 91.200 340.336,90.643 339.843,89.962 339.441 L 88.723 338.710 89.194 339.589 M232.700 341.029 C 231.875 341.570,231.200 342.109,231.200 342.228 C 231.200 342.531,233.571 341.108,234.080 340.500 C 234.658 339.809,234.431 339.896,232.700 341.029 M93.291 342.148 C 93.877 342.734,96.400 344.126,96.400 343.863 C 96.400 343.659,93.289 341.600,92.980 341.600 C 92.850 341.600,92.990 341.847,93.291 342.148 M227.200 344.400 C 225.990 345.039,225.141 345.571,225.313 345.581 C 225.738 345.607,229.600 343.636,229.600 343.393 C 229.600 343.126,229.655 343.103,227.200 344.400 M291.900 345.464 C 290.934 345.973,290.393 346.800,291.026 346.800 C 291.580 346.800,292.727 345.968,292.940 345.411 C 293.069 345.075,293.136 344.819,293.087 344.842 C 293.039 344.866,292.505 345.146,291.900 345.464 M98.939 345.699 C 98.794 345.933,98.858 346.012,99.079 345.875 C 99.301 345.738,99.824 345.884,100.241 346.200 C 101.216 346.938,101.835 346.965,101.236 346.243 C 100.614 345.494,99.263 345.174,98.939 345.699 M194.147 345.914 C 194.399 346.323,198.007 348.126,198.195 347.938 C 198.274 347.859,197.352 347.300,196.146 346.696 C 194.939 346.092,194.040 345.740,194.147 345.914 M220.000 347.400 C 219.230 347.697,218.870 347.945,219.200 347.952 C 219.530 347.958,220.340 347.717,221.000 347.414 C 222.545 346.707,221.826 346.697,220.000 347.400 M104.800 348.416 C 104.800 348.584,105.367 348.919,106.060 349.161 C 107.680 349.726,107.793 349.715,107.237 349.044 C 106.727 348.430,104.800 347.933,104.800 348.416 M286.200 349.010 C 285.320 349.552,284.729 349.997,284.886 349.998 C 285.466 350.002,288.000 348.641,288.000 348.326 C 288.000 347.894,288.035 347.880,286.200 349.010 M204.105 349.487 C 204.714 349.579,205.614 349.577,206.105 349.482 C 206.597 349.387,206.100 349.311,205.000 349.314 C 203.900 349.317,203.497 349.395,204.105 349.487 M209.705 349.487 C 210.314 349.579,211.214 349.577,211.705 349.482 C 212.197 349.387,211.700 349.311,210.600 349.314 C 209.500 349.317,209.097 349.395,209.705 349.487 M112.652 351.481 C 112.498 351.636,113.143 351.993,114.086 352.275 C 116.557 353.014,116.863 352.902,114.856 351.991 C 112.848 351.080,113.015 351.118,112.652 351.481 M279.600 352.252 C 278.610 352.787,278.238 353.106,278.774 352.962 C 280.542 352.485,282.107 351.713,281.751 351.494 C 281.558 351.376,280.590 351.717,279.600 352.252 M122.400 354.733 C 122.400 354.917,122.625 355.074,122.900 355.083 C 123.175 355.092,123.940 355.213,124.600 355.352 L 125.800 355.605 124.600 355.020 C 123.234 354.355,122.400 354.246,122.400 354.733 M272.400 355.039 L 271.400 355.650 272.400 355.431 C 272.950 355.310,273.636 355.208,273.924 355.205 C 274.212 355.202,274.336 355.020,274.200 354.800 C 273.874 354.272,273.594 354.310,272.400 355.039 M133.051 357.482 C 132.914 357.620,133.739 358.062,134.885 358.466 C 137.216 359.287,137.740 359.374,136.696 358.766 C 135.268 357.934,133.294 357.239,133.051 357.482 M263.200 358.600 C 260.073 360.237,260.204 360.409,263.450 358.929 C 264.743 358.340,265.948 357.895,266.130 357.939 C 266.311 357.984,266.345 357.835,266.206 357.610 C 266.067 357.384,265.918 357.209,265.876 357.219 C 265.834 357.230,264.630 357.851,263.200 358.600 M140.400 360.751 C 140.400 360.955,140.940 361.310,141.600 361.540 C 142.260 361.770,142.800 361.882,142.800 361.789 C 142.800 361.697,142.260 361.341,141.600 361.000 C 140.940 360.659,140.400 360.546,140.400 360.751 M257.292 361.658 C 254.587 363.220,254.592 363.519,257.300 362.133 C 259.749 360.880,259.788 360.855,259.559 360.625 C 259.462 360.529,258.442 360.994,257.292 361.658 M145.600 363.501 C 145.600 363.943,148.351 365.382,148.641 365.092 C 148.771 364.962,148.140 364.480,147.239 364.020 C 146.337 363.560,145.600 363.326,145.600 363.501 M253.000 364.207 C 251.802 365.209,251.802 365.210,252.878 364.751 C 253.471 364.498,254.050 364.046,254.165 363.746 C 254.443 363.022,254.395 363.041,253.000 364.207 M149.200 365.308 C 149.200 365.513,152.711 367.756,154.000 368.374 L 155.000 368.854 154.000 368.042 C 152.924 367.169,149.200 365.048,149.200 365.308 M247.446 367.601 C 246.151 368.480,245.255 369.200,245.453 369.200 C 245.652 369.200,246.477 368.750,247.286 368.200 C 248.095 367.650,248.928 367.200,249.136 367.200 C 249.344 367.200,249.618 366.930,249.745 366.600 C 250.048 365.810,250.144 365.768,247.446 367.601 M156.221 369.712 C 156.331 369.998,156.958 370.435,157.613 370.683 C 159.077 371.235,158.780 370.617,157.185 369.792 C 156.301 369.335,156.069 369.316,156.221 369.712 M243.157 370.377 C 242.630 370.815,242.380 371.174,242.600 371.174 C 243.173 371.175,244.583 370.049,244.327 369.794 C 244.210 369.676,243.683 369.939,243.157 370.377 M161.049 372.584 C 161.166 372.889,161.923 373.446,162.731 373.822 C 163.539 374.198,164.335 374.583,164.500 374.677 C 164.665 374.770,164.800 374.762,164.800 374.658 C 164.800 374.554,163.908 373.920,162.818 373.249 C 161.709 372.567,160.930 372.274,161.049 372.584 M238.651 373.249 C 237.614 373.936,236.854 374.587,236.962 374.695 C 237.070 374.803,237.642 374.511,238.233 374.046 C 238.824 373.581,239.534 373.200,239.811 373.200 C 240.088 373.200,240.418 372.930,240.545 372.600 C 240.851 371.800,240.824 371.810,238.651 373.249 M166.800 375.978 C 166.800 376.199,167.340 376.659,168.000 377.000 C 168.660 377.341,169.200 377.560,169.200 377.485 C 169.200 377.411,168.660 376.951,168.000 376.463 C 167.340 375.975,166.800 375.757,166.800 375.978 M231.400 377.868 C 227.301 380.373,226.150 381.312,228.800 379.990 C 229.790 379.497,230.690 378.966,230.800 378.812 C 230.910 378.657,231.900 378.019,233.000 377.394 C 235.387 376.038,235.378 376.044,235.167 375.834 C 235.075 375.743,233.380 376.658,231.400 377.868 M170.654 378.595 C 170.781 378.928,171.136 379.200,171.443 379.200 C 171.749 379.200,172.000 379.391,172.000 379.624 C 172.000 379.857,172.153 379.952,172.341 379.836 C 172.529 379.720,173.024 379.884,173.441 380.200 C 173.858 380.516,174.380 380.779,174.600 380.785 C 175.040 380.796,173.224 379.498,171.511 378.576 C 170.545 378.057,170.448 378.059,170.654 378.595 M176.800 381.931 C 176.800 382.122,177.520 382.561,178.400 382.907 C 179.280 383.253,180.000 383.464,180.000 383.376 C 180.000 383.288,179.280 382.849,178.400 382.400 C 177.520 381.951,176.800 381.740,176.800 381.931 M223.000 382.590 C 222.120 383.132,221.529 383.581,221.686 383.588 C 222.243 383.612,224.800 382.247,224.800 381.926 C 224.800 381.480,224.805 381.478,223.000 382.590 M182.800 384.840 C 182.800 385.111,182.918 385.215,183.063 385.070 C 183.208 384.925,183.532 384.977,183.783 385.186 C 184.034 385.394,185.041 385.660,186.020 385.777 L 187.800 385.989 186.044 385.404 C 185.078 385.082,183.953 384.712,183.544 384.582 C 183.093 384.439,182.800 384.541,182.800 384.840 M217.132 384.814 C 216.764 385.029,215.414 385.473,214.132 385.802 C 212.123 386.318,212.049 386.366,213.600 386.152 C 214.590 386.016,215.711 385.870,216.092 385.827 C 216.472 385.784,216.907 385.626,217.059 385.475 C 217.210 385.324,217.663 385.200,218.067 385.200 C 218.470 385.200,218.800 385.020,218.800 384.800 C 218.800 384.297,218.006 384.304,217.132 384.814 M189.305 386.287 C 189.914 386.379,190.814 386.377,191.305 386.282 C 191.797 386.187,191.300 386.111,190.200 386.114 C 189.100 386.117,188.697 386.195,189.305 386.287 M201.911 386.693 C 202.851 386.778,204.291 386.777,205.111 386.691 C 205.930 386.605,205.160 386.536,203.400 386.537 C 201.640 386.539,200.970 386.609,201.911 386.693 " stroke="none" fill="#ccc4b5" fill-rule="evenodd"></path></g></svg>